G04 EAGLE Gerber X2 export*
%TF.Part,Single*%
%TF.FileFunction,Copper,L1,Top,Mixed*%
%TF.FilePolarity,Positive*%
%TF.GenerationSoftware,Autodesk,EAGLE,9.6.2*%
%TF.CreationDate,2021-09-27T13:03:11Z*%
G75*
%MOIN*%
%FSLAX36Y36*%
%LPD*%
%INTop Copper Layer*%
%AMOC8*
5,1,8,0,0,1.08239X$1,22.5*%
G01*
%ADD10P,0.067108X8X112.500000*%
%ADD11C,0.062000*%
%ADD12P,0.067108X8X292.500000*%
%ADD13P,0.056284X8X22.500000*%
%ADD14P,0.056284X8X112.500000*%
%ADD15P,0.071438X8X292.500000*%
%ADD16C,0.165984*%
%ADD17C,0.162000*%
%ADD18C,0.060000*%
%ADD19P,0.071438X8X22.500000*%
%ADD20P,0.056284X8X202.500000*%
%ADD21C,0.074000*%
%ADD22C,0.064000*%
%ADD23C,0.065000*%
%ADD24C,0.006000*%

G36*
X313841Y640046D02*
X313841Y640046D01*
X314123Y640053D01*
X314316Y640124D01*
X314519Y640157D01*
X314768Y640289D01*
X315033Y640386D01*
X315194Y640514D01*
X315375Y640610D01*
X315569Y640814D01*
X315790Y640991D01*
X315901Y641163D01*
X316042Y641312D01*
X316161Y641568D01*
X316314Y641805D01*
X316364Y642005D01*
X316451Y642191D01*
X316482Y642471D01*
X316551Y642744D01*
X316535Y642949D01*
X316558Y643154D01*
X316498Y643429D01*
X316477Y643710D01*
X316397Y643899D01*
X316353Y644100D01*
X316208Y644343D01*
X316098Y644602D01*
X315922Y644822D01*
X315857Y644932D01*
X315786Y644993D01*
X315684Y645121D01*
X313655Y647150D01*
X313654Y647150D01*
X199007Y761797D01*
X199007Y849593D01*
X198978Y849771D01*
X198986Y849951D01*
X198900Y850246D01*
X198851Y850549D01*
X198767Y850708D01*
X198716Y850881D01*
X198541Y851134D01*
X198398Y851405D01*
X198267Y851529D01*
X198164Y851677D01*
X197918Y851861D01*
X197695Y852072D01*
X197532Y852148D01*
X197388Y852256D01*
X197095Y852351D01*
X196817Y852481D01*
X196638Y852501D01*
X196467Y852557D01*
X196160Y852554D01*
X195854Y852588D01*
X195678Y852550D01*
X195498Y852548D01*
X194983Y852399D01*
X194907Y852383D01*
X194890Y852372D01*
X194860Y852364D01*
X169211Y841739D01*
X134600Y841739D01*
X102624Y854984D01*
X78150Y879458D01*
X64905Y911434D01*
X64905Y946046D01*
X78150Y978022D01*
X102624Y1002496D01*
X134600Y1015741D01*
X169211Y1015741D01*
X196917Y1004265D01*
X197364Y1004160D01*
X197809Y1004047D01*
X197835Y1004049D01*
X197860Y1004043D01*
X198321Y1004086D01*
X198775Y1004122D01*
X198799Y1004132D01*
X198825Y1004134D01*
X199246Y1004321D01*
X199667Y1004500D01*
X199691Y1004519D01*
X199710Y1004528D01*
X199766Y1004579D01*
X200186Y1004915D01*
X229421Y1034150D01*
X229467Y1034213D01*
X229527Y1034261D01*
X229748Y1034605D01*
X229987Y1034937D01*
X230009Y1035011D01*
X230051Y1035076D01*
X230151Y1035472D01*
X230272Y1035862D01*
X230270Y1035940D01*
X230289Y1036015D01*
X230257Y1036422D01*
X230247Y1036831D01*
X230220Y1036904D01*
X230214Y1036981D01*
X230055Y1037357D01*
X229915Y1037741D01*
X229866Y1037801D01*
X229836Y1037873D01*
X229421Y1038392D01*
X225244Y1042569D01*
X211999Y1074545D01*
X211999Y1109156D01*
X225244Y1141132D01*
X249718Y1165606D01*
X281694Y1178851D01*
X316306Y1178851D01*
X348282Y1165606D01*
X372756Y1141132D01*
X386001Y1109156D01*
X386001Y1098000D01*
X386013Y1097923D01*
X386005Y1097846D01*
X386091Y1097446D01*
X386157Y1097044D01*
X386193Y1096975D01*
X386210Y1096899D01*
X386419Y1096548D01*
X386610Y1096188D01*
X386666Y1096134D01*
X386706Y1096068D01*
X387016Y1095802D01*
X387312Y1095520D01*
X387383Y1095487D01*
X387442Y1095437D01*
X387820Y1095284D01*
X388191Y1095112D01*
X388268Y1095103D01*
X388340Y1095074D01*
X389000Y1095001D01*
X671979Y1095001D01*
X672433Y1095075D01*
X672886Y1095141D01*
X672909Y1095153D01*
X672936Y1095157D01*
X673339Y1095371D01*
X673750Y1095579D01*
X673769Y1095598D01*
X673792Y1095610D01*
X674030Y1095861D01*
X674124Y1095936D01*
X686642Y1108454D01*
X702446Y1115001D01*
X719554Y1115001D01*
X735358Y1108454D01*
X747454Y1096358D01*
X754001Y1080554D01*
X754001Y1063446D01*
X748113Y1049234D01*
X748008Y1048786D01*
X747896Y1048341D01*
X747898Y1048316D01*
X747892Y1048290D01*
X747935Y1047830D01*
X747970Y1047376D01*
X747980Y1047352D01*
X747983Y1047326D01*
X748170Y1046905D01*
X748349Y1046484D01*
X748368Y1046460D01*
X748376Y1046441D01*
X748428Y1046385D01*
X748764Y1045965D01*
X843879Y950850D01*
X843942Y950804D01*
X843991Y950744D01*
X844335Y950522D01*
X844666Y950284D01*
X844740Y950261D01*
X844805Y950219D01*
X845201Y950119D01*
X845592Y949999D01*
X845669Y950001D01*
X845744Y949982D01*
X846151Y950013D01*
X846560Y950024D01*
X846633Y950051D01*
X846710Y950056D01*
X847086Y950216D01*
X847470Y950356D01*
X847531Y950405D01*
X847602Y950435D01*
X848121Y950850D01*
X1052272Y1155001D01*
X1208000Y1155001D01*
X1208077Y1155013D01*
X1208154Y1155005D01*
X1208553Y1155091D01*
X1208956Y1155157D01*
X1209024Y1155193D01*
X1209100Y1155210D01*
X1209452Y1155419D01*
X1209812Y1155610D01*
X1209866Y1155666D01*
X1209932Y1155706D01*
X1210198Y1156016D01*
X1210480Y1156312D01*
X1210512Y1156383D01*
X1210563Y1156442D01*
X1210716Y1156820D01*
X1210888Y1157191D01*
X1210897Y1157268D01*
X1210926Y1157340D01*
X1210999Y1158000D01*
X1210999Y1166155D01*
X1233845Y1189001D01*
X1266155Y1189001D01*
X1289001Y1166155D01*
X1289001Y1133845D01*
X1267276Y1112121D01*
X1267111Y1111892D01*
X1266917Y1111687D01*
X1266830Y1111501D01*
X1266711Y1111334D01*
X1266628Y1111065D01*
X1266509Y1110809D01*
X1266486Y1110605D01*
X1266425Y1110408D01*
X1266433Y1110126D01*
X1266401Y1109846D01*
X1266445Y1109645D01*
X1266450Y1109440D01*
X1266547Y1109175D01*
X1266607Y1108899D01*
X1266712Y1108723D01*
X1266782Y1108530D01*
X1266959Y1108309D01*
X1267103Y1108068D01*
X1267259Y1107934D01*
X1267387Y1107773D01*
X1267624Y1107621D01*
X1267838Y1107437D01*
X1268029Y1107360D01*
X1268202Y1107249D01*
X1268475Y1107180D01*
X1268737Y1107074D01*
X1269017Y1107043D01*
X1269141Y1107012D01*
X1269234Y1107019D01*
X1269397Y1107001D01*
X1283000Y1107001D01*
X1283077Y1107013D01*
X1283154Y1107005D01*
X1283553Y1107091D01*
X1283956Y1107157D01*
X1284024Y1107193D01*
X1284100Y1107210D01*
X1284452Y1107419D01*
X1284812Y1107610D01*
X1284866Y1107666D01*
X1284932Y1107706D01*
X1285198Y1108016D01*
X1285480Y1108312D01*
X1285512Y1108383D01*
X1285563Y1108442D01*
X1285716Y1108820D01*
X1285888Y1109191D01*
X1285897Y1109268D01*
X1285926Y1109340D01*
X1285999Y1110000D01*
X1285999Y1116155D01*
X1308845Y1139001D01*
X1341155Y1139001D01*
X1364001Y1116155D01*
X1364001Y1083845D01*
X1341155Y1060999D01*
X1308845Y1060999D01*
X1285999Y1083845D01*
X1285999Y1086000D01*
X1285987Y1086077D01*
X1285995Y1086154D01*
X1285909Y1086553D01*
X1285843Y1086956D01*
X1285807Y1087024D01*
X1285790Y1087100D01*
X1285581Y1087452D01*
X1285390Y1087812D01*
X1285334Y1087866D01*
X1285294Y1087932D01*
X1284984Y1088198D01*
X1284688Y1088480D01*
X1284617Y1088512D01*
X1284558Y1088563D01*
X1284180Y1088716D01*
X1283809Y1088888D01*
X1283732Y1088897D01*
X1283660Y1088926D01*
X1283000Y1088999D01*
X1279054Y1088999D01*
X1278775Y1088954D01*
X1278493Y1088946D01*
X1278300Y1088876D01*
X1278097Y1088843D01*
X1277849Y1088711D01*
X1277583Y1088614D01*
X1277422Y1088486D01*
X1277241Y1088390D01*
X1277047Y1088186D01*
X1276827Y1088009D01*
X1276716Y1087836D01*
X1276574Y1087688D01*
X1276455Y1087432D01*
X1276303Y1087195D01*
X1276252Y1086996D01*
X1276165Y1086809D01*
X1276134Y1086529D01*
X1276065Y1086256D01*
X1276081Y1086051D01*
X1276058Y1085846D01*
X1276118Y1085570D01*
X1276140Y1085290D01*
X1276220Y1085101D01*
X1276263Y1084900D01*
X1276408Y1084658D01*
X1276518Y1084398D01*
X1276694Y1084177D01*
X1276760Y1084068D01*
X1276830Y1084007D01*
X1276933Y1083879D01*
X1293001Y1067811D01*
X1293001Y1055999D01*
X1253000Y1055999D01*
X1252924Y1055986D01*
X1252847Y1055995D01*
X1252447Y1055908D01*
X1252044Y1055843D01*
X1251976Y1055806D01*
X1251900Y1055790D01*
X1251549Y1055580D01*
X1251188Y1055390D01*
X1251135Y1055333D01*
X1251068Y1055294D01*
X1250803Y1054984D01*
X1250521Y1054687D01*
X1250488Y1054617D01*
X1250438Y1054558D01*
X1250285Y1054179D01*
X1250112Y1053809D01*
X1250104Y1053732D01*
X1250075Y1053660D01*
X1250001Y1053000D01*
X1250001Y1049999D01*
X1249999Y1049999D01*
X1249999Y1053000D01*
X1249986Y1053076D01*
X1249995Y1053153D01*
X1249908Y1053553D01*
X1249842Y1053956D01*
X1249806Y1054024D01*
X1249789Y1054100D01*
X1249580Y1054451D01*
X1249389Y1054812D01*
X1249333Y1054865D01*
X1249293Y1054932D01*
X1248983Y1055198D01*
X1248687Y1055479D01*
X1248616Y1055512D01*
X1248558Y1055563D01*
X1248179Y1055715D01*
X1247808Y1055888D01*
X1247731Y1055896D01*
X1247659Y1055925D01*
X1246999Y1055999D01*
X1207970Y1055999D01*
X1207616Y1055941D01*
X1207260Y1055914D01*
X1207141Y1055863D01*
X1207014Y1055843D01*
X1206698Y1055675D01*
X1206368Y1055535D01*
X1206240Y1055433D01*
X1206158Y1055390D01*
X1206070Y1055297D01*
X1205849Y1055121D01*
X878648Y727920D01*
X878603Y727857D01*
X878543Y727808D01*
X878321Y727464D01*
X878083Y727133D01*
X878060Y727059D01*
X878018Y726994D01*
X877918Y726598D01*
X877798Y726207D01*
X877800Y726130D01*
X877781Y726055D01*
X877812Y725648D01*
X877823Y725239D01*
X877850Y725166D01*
X877855Y725089D01*
X878015Y724713D01*
X878155Y724329D01*
X878204Y724268D01*
X878234Y724197D01*
X878648Y723678D01*
X881368Y720959D01*
X887001Y707360D01*
X887001Y692640D01*
X881368Y679041D01*
X870959Y668632D01*
X861637Y664771D01*
X861311Y664569D01*
X860972Y664390D01*
X860901Y664315D01*
X860813Y664260D01*
X860569Y663966D01*
X860305Y663687D01*
X860261Y663594D01*
X860195Y663514D01*
X860058Y663157D01*
X859896Y662809D01*
X859885Y662706D01*
X859848Y662610D01*
X859831Y662227D01*
X859789Y661846D01*
X859811Y661745D01*
X859806Y661642D01*
X859913Y661274D01*
X859994Y660899D01*
X860047Y660811D01*
X860076Y660712D01*
X860295Y660396D01*
X860491Y660068D01*
X860569Y660000D01*
X860628Y659915D01*
X860935Y659687D01*
X861226Y659437D01*
X861322Y659398D01*
X861405Y659337D01*
X861769Y659218D01*
X862124Y659074D01*
X862252Y659060D01*
X862325Y659036D01*
X862457Y659037D01*
X862784Y659001D01*
X1338000Y659001D01*
X1338077Y659013D01*
X1338154Y659005D01*
X1338553Y659091D01*
X1338956Y659157D01*
X1339024Y659193D01*
X1339100Y659210D01*
X1339452Y659419D01*
X1339812Y659610D01*
X1339866Y659666D01*
X1339932Y659706D01*
X1340198Y660016D01*
X1340480Y660312D01*
X1340512Y660383D01*
X1340563Y660442D01*
X1340716Y660820D01*
X1340888Y661191D01*
X1340897Y661268D01*
X1340926Y661340D01*
X1340999Y662000D01*
X1340999Y682757D01*
X1340925Y683212D01*
X1340859Y683665D01*
X1340847Y683688D01*
X1340843Y683713D01*
X1340628Y684118D01*
X1340420Y684529D01*
X1340402Y684547D01*
X1340390Y684570D01*
X1340057Y684885D01*
X1339729Y685208D01*
X1339703Y685222D01*
X1339688Y685237D01*
X1339617Y685270D01*
X1339148Y685528D01*
X1329607Y689480D01*
X1319480Y699607D01*
X1313999Y712839D01*
X1313999Y787161D01*
X1319480Y800393D01*
X1329607Y810520D01*
X1342839Y816001D01*
X1357161Y816001D01*
X1370393Y810520D01*
X1380520Y800393D01*
X1386001Y787161D01*
X1386001Y712839D01*
X1380520Y699607D01*
X1370393Y689480D01*
X1360852Y685528D01*
X1360463Y685287D01*
X1360068Y685051D01*
X1360051Y685031D01*
X1360029Y685018D01*
X1359736Y684665D01*
X1359437Y684315D01*
X1359427Y684291D01*
X1359411Y684272D01*
X1359247Y683844D01*
X1359074Y683417D01*
X1359071Y683387D01*
X1359063Y683367D01*
X1359060Y683291D01*
X1359001Y682757D01*
X1359001Y646272D01*
X1357850Y645121D01*
X1357685Y644892D01*
X1357491Y644687D01*
X1357404Y644501D01*
X1357284Y644334D01*
X1357201Y644064D01*
X1357082Y643809D01*
X1357059Y643605D01*
X1356999Y643408D01*
X1357006Y643126D01*
X1356975Y642846D01*
X1357018Y642645D01*
X1357024Y642440D01*
X1357120Y642175D01*
X1357180Y641899D01*
X1357285Y641723D01*
X1357356Y641530D01*
X1357532Y641310D01*
X1357676Y641068D01*
X1357833Y640934D01*
X1357961Y640773D01*
X1358198Y640621D01*
X1358412Y640437D01*
X1358602Y640360D01*
X1358775Y640249D01*
X1359049Y640180D01*
X1359310Y640074D01*
X1359590Y640043D01*
X1359715Y640012D01*
X1359808Y640019D01*
X1359970Y640001D01*
X2796654Y640001D01*
X2797025Y640061D01*
X2797398Y640094D01*
X2797500Y640139D01*
X2797610Y640157D01*
X2797941Y640332D01*
X2798285Y640483D01*
X2798368Y640558D01*
X2798467Y640610D01*
X2798725Y640882D01*
X2799002Y641134D01*
X2799057Y641231D01*
X2799134Y641312D01*
X2799292Y641653D01*
X2799475Y641980D01*
X2799495Y642090D01*
X2799542Y642191D01*
X2799584Y642563D01*
X2799653Y642932D01*
X2799637Y643043D01*
X2799650Y643154D01*
X2799570Y643520D01*
X2799518Y643891D01*
X2799462Y644019D01*
X2799445Y644100D01*
X2799377Y644213D01*
X2799252Y644500D01*
X2792836Y655611D01*
X2784999Y684860D01*
X2784999Y715140D01*
X2792836Y744388D01*
X2807977Y770612D01*
X2829388Y792023D01*
X2855611Y807164D01*
X2884860Y815001D01*
X2915140Y815001D01*
X2943232Y807474D01*
X2943695Y807427D01*
X2944162Y807375D01*
X2944179Y807379D01*
X2944195Y807377D01*
X2944650Y807481D01*
X2945108Y807580D01*
X2945123Y807589D01*
X2945140Y807593D01*
X2945538Y807837D01*
X2945940Y808077D01*
X2945952Y808090D01*
X2945966Y808099D01*
X2946266Y808456D01*
X2946571Y808812D01*
X2946577Y808828D01*
X2946588Y808842D01*
X2946756Y809271D01*
X2946934Y809711D01*
X2946936Y809731D01*
X2946941Y809744D01*
X2946944Y809802D01*
X2947007Y810371D01*
X2947007Y2727131D01*
X2946962Y2727409D01*
X2946954Y2727691D01*
X2946884Y2727884D01*
X2946851Y2728087D01*
X2946719Y2728336D01*
X2946622Y2728601D01*
X2946494Y2728762D01*
X2946398Y2728943D01*
X2946194Y2729137D01*
X2946017Y2729358D01*
X2945844Y2729469D01*
X2945695Y2729610D01*
X2945439Y2729729D01*
X2945203Y2729882D01*
X2945003Y2729932D01*
X2944817Y2730019D01*
X2944537Y2730050D01*
X2944263Y2730119D01*
X2944059Y2730103D01*
X2943854Y2730126D01*
X2943578Y2730066D01*
X2943297Y2730045D01*
X2943108Y2729965D01*
X2942907Y2729921D01*
X2942665Y2729777D01*
X2942406Y2729666D01*
X2942185Y2729490D01*
X2942076Y2729425D01*
X2942015Y2729354D01*
X2941887Y2729252D01*
X2920612Y2707977D01*
X2894388Y2692836D01*
X2888530Y2691267D01*
X2888530Y2691266D01*
X2888514Y2691262D01*
X2888088Y2691070D01*
X2887645Y2690873D01*
X2887638Y2690867D01*
X2887631Y2690864D01*
X2887284Y2690542D01*
X2886931Y2690218D01*
X2886927Y2690210D01*
X2886921Y2690204D01*
X2886693Y2689785D01*
X2886464Y2689369D01*
X2886462Y2689361D01*
X2886458Y2689353D01*
X2886375Y2688882D01*
X2886291Y2688416D01*
X2886292Y2688408D01*
X2886291Y2688399D01*
X2886362Y2687928D01*
X2886431Y2687458D01*
X2886435Y2687450D01*
X2886436Y2687442D01*
X2886653Y2687021D01*
X2886869Y2686594D01*
X2886876Y2686588D01*
X2886880Y2686580D01*
X2887218Y2686252D01*
X2887560Y2685915D01*
X2887569Y2685910D01*
X2887574Y2685905D01*
X2887603Y2685891D01*
X2888142Y2685594D01*
X2900393Y2680520D01*
X2910520Y2670393D01*
X2916001Y2657161D01*
X2916001Y2642839D01*
X2910520Y2629607D01*
X2900393Y2619480D01*
X2887161Y2613999D01*
X2812839Y2613999D01*
X2799607Y2619480D01*
X2789480Y2629607D01*
X2787185Y2635148D01*
X2786944Y2635537D01*
X2786708Y2635932D01*
X2786688Y2635949D01*
X2786675Y2635971D01*
X2786322Y2636263D01*
X2785972Y2636563D01*
X2785948Y2636572D01*
X2785929Y2636589D01*
X2785501Y2636753D01*
X2785074Y2636926D01*
X2785044Y2636929D01*
X2785024Y2636937D01*
X2784948Y2636940D01*
X2784414Y2636999D01*
X1450970Y2636999D01*
X1450617Y2636941D01*
X1450260Y2636914D01*
X1450142Y2636864D01*
X1450014Y2636843D01*
X1449698Y2636675D01*
X1449368Y2636536D01*
X1449240Y2636433D01*
X1449158Y2636390D01*
X1449070Y2636297D01*
X1448850Y2636121D01*
X1434230Y2621501D01*
X1434045Y2621243D01*
X1434004Y2621201D01*
X1433986Y2621162D01*
X1433963Y2621130D01*
X1433687Y2620760D01*
X1433679Y2620735D01*
X1433664Y2620714D01*
X1433530Y2620278D01*
X1433386Y2619839D01*
X1433387Y2619813D01*
X1433379Y2619788D01*
X1433391Y2619329D01*
X1433395Y2618870D01*
X1433403Y2618841D01*
X1433404Y2618820D01*
X1433430Y2618748D01*
X1433579Y2618232D01*
X1438001Y2607559D01*
X1438001Y2592441D01*
X1432215Y2578474D01*
X1421525Y2567784D01*
X1407559Y2561999D01*
X1392441Y2561999D01*
X1378474Y2567784D01*
X1367784Y2578474D01*
X1361999Y2592441D01*
X1361999Y2607559D01*
X1367784Y2621525D01*
X1378474Y2632215D01*
X1392441Y2638001D01*
X1407559Y2638001D01*
X1418232Y2633579D01*
X1418680Y2633474D01*
X1419125Y2633362D01*
X1419150Y2633364D01*
X1419175Y2633358D01*
X1419636Y2633401D01*
X1420090Y2633437D01*
X1420114Y2633446D01*
X1420140Y2633449D01*
X1420561Y2633636D01*
X1420982Y2633815D01*
X1421006Y2633834D01*
X1421025Y2633843D01*
X1421081Y2633894D01*
X1421501Y2634230D01*
X1436121Y2648850D01*
X1442272Y2655001D01*
X2781100Y2655001D01*
X2781555Y2655075D01*
X2782008Y2655141D01*
X2782031Y2655153D01*
X2782056Y2655157D01*
X2782461Y2655371D01*
X2782872Y2655580D01*
X2782890Y2655598D01*
X2782913Y2655610D01*
X2783227Y2655941D01*
X2783551Y2656270D01*
X2783566Y2656297D01*
X2783580Y2656312D01*
X2783613Y2656383D01*
X2783871Y2656852D01*
X2789480Y2670393D01*
X2799607Y2680520D01*
X2811842Y2685588D01*
X2811843Y2685588D01*
X2811858Y2685594D01*
X2812257Y2685842D01*
X2812668Y2686094D01*
X2812674Y2686100D01*
X2812681Y2686105D01*
X2812984Y2686470D01*
X2813290Y2686836D01*
X2813294Y2686844D01*
X2813299Y2686851D01*
X2813466Y2687285D01*
X2813643Y2687738D01*
X2813644Y2687747D01*
X2813647Y2687755D01*
X2813667Y2688227D01*
X2813690Y2688706D01*
X2813688Y2688714D01*
X2813688Y2688723D01*
X2813556Y2689177D01*
X2813426Y2689638D01*
X2813421Y2689645D01*
X2813419Y2689653D01*
X2813146Y2690047D01*
X2812878Y2690437D01*
X2812872Y2690443D01*
X2812867Y2690450D01*
X2812489Y2690731D01*
X2812105Y2691020D01*
X2812095Y2691024D01*
X2812090Y2691028D01*
X2812060Y2691038D01*
X2811486Y2691262D01*
X2805611Y2692836D01*
X2779388Y2707977D01*
X2757977Y2729388D01*
X2742836Y2755611D01*
X2734999Y2784860D01*
X2734999Y2815140D01*
X2742836Y2844388D01*
X2757977Y2870612D01*
X2779388Y2892023D01*
X2800148Y2904009D01*
X2800294Y2904128D01*
X2800460Y2904217D01*
X2800666Y2904433D01*
X2800897Y2904622D01*
X2800998Y2904782D01*
X2801127Y2904919D01*
X2801253Y2905190D01*
X2801412Y2905443D01*
X2801456Y2905626D01*
X2801536Y2905797D01*
X2801569Y2906094D01*
X2801639Y2906385D01*
X2801622Y2906572D01*
X2801643Y2906760D01*
X2801580Y2907052D01*
X2801554Y2907350D01*
X2801478Y2907522D01*
X2801438Y2907707D01*
X2801285Y2907963D01*
X2801165Y2908237D01*
X2801038Y2908377D01*
X2800942Y2908539D01*
X2800715Y2908733D01*
X2800514Y2908954D01*
X2800349Y2909046D01*
X2800206Y2909169D01*
X2799929Y2909281D01*
X2799668Y2909427D01*
X2799483Y2909461D01*
X2799308Y2909532D01*
X2798806Y2909588D01*
X2798716Y2909605D01*
X2798689Y2909601D01*
X2798648Y2909606D01*
X51352Y2909606D01*
X51166Y2909575D01*
X50977Y2909582D01*
X50691Y2909497D01*
X50396Y2909449D01*
X50229Y2909361D01*
X50048Y2909307D01*
X49804Y2909136D01*
X49540Y2908996D01*
X49410Y2908859D01*
X49255Y2908751D01*
X49078Y2908511D01*
X48872Y2908294D01*
X48793Y2908123D01*
X48681Y2907971D01*
X48590Y2907686D01*
X48464Y2907415D01*
X48443Y2907228D01*
X48385Y2907048D01*
X48390Y2906750D01*
X48357Y2906453D01*
X48397Y2906268D01*
X48399Y2906080D01*
X48499Y2905798D01*
X48562Y2905506D01*
X48659Y2905344D01*
X48721Y2905166D01*
X48905Y2904930D01*
X49058Y2904674D01*
X49201Y2904551D01*
X49318Y2904403D01*
X49724Y2904103D01*
X49794Y2904044D01*
X49819Y2904033D01*
X49852Y2904009D01*
X70612Y2892023D01*
X92023Y2870612D01*
X107164Y2844388D01*
X115001Y2815140D01*
X115001Y2784860D01*
X107164Y2755611D01*
X92023Y2729388D01*
X70612Y2707977D01*
X44388Y2692836D01*
X15140Y2684999D01*
X-15140Y2684999D01*
X-44388Y2692836D01*
X-55500Y2699252D01*
X-55851Y2699384D01*
X-56191Y2699542D01*
X-56302Y2699555D01*
X-56406Y2699594D01*
X-56781Y2699608D01*
X-57154Y2699650D01*
X-57263Y2699626D01*
X-57375Y2699630D01*
X-57734Y2699524D01*
X-58100Y2699445D01*
X-58196Y2699387D01*
X-58304Y2699356D01*
X-58610Y2699140D01*
X-58932Y2698948D01*
X-59005Y2698863D01*
X-59097Y2698799D01*
X-59319Y2698497D01*
X-59563Y2698213D01*
X-59605Y2698109D01*
X-59671Y2698019D01*
X-59785Y2697662D01*
X-59926Y2697314D01*
X-59941Y2697176D01*
X-59967Y2697096D01*
X-59965Y2696965D01*
X-59999Y2696654D01*
X-59999Y750670D01*
X-59969Y750484D01*
X-59976Y750296D01*
X-59891Y750009D01*
X-59843Y749714D01*
X-59755Y749548D01*
X-59701Y749367D01*
X-59529Y749122D01*
X-59390Y748858D01*
X-59253Y748728D01*
X-59145Y748574D01*
X-58904Y748397D01*
X-58688Y748191D01*
X-58516Y748111D01*
X-58365Y747999D01*
X-58080Y747908D01*
X-57809Y747782D01*
X-57622Y747761D01*
X-57442Y747704D01*
X-57143Y747708D01*
X-56846Y747675D01*
X-56662Y747715D01*
X-56473Y747718D01*
X-56192Y747817D01*
X-55900Y747880D01*
X-55738Y747977D01*
X-55560Y748039D01*
X-55324Y748223D01*
X-55068Y748376D01*
X-54945Y748520D01*
X-54796Y748636D01*
X-54497Y749042D01*
X-54437Y749112D01*
X-54427Y749137D01*
X-54403Y749171D01*
X-42023Y770612D01*
X-20612Y792023D01*
X5611Y807164D01*
X34860Y815001D01*
X65140Y815001D01*
X94388Y807164D01*
X120612Y792023D01*
X142023Y770612D01*
X157164Y744388D01*
X165001Y715140D01*
X165001Y684860D01*
X157164Y655611D01*
X150748Y644500D01*
X150615Y644149D01*
X150457Y643809D01*
X150445Y643698D01*
X150406Y643593D01*
X150392Y643219D01*
X150350Y642846D01*
X150374Y642737D01*
X150370Y642625D01*
X150476Y642266D01*
X150555Y641899D01*
X150613Y641803D01*
X150644Y641696D01*
X150859Y641390D01*
X151052Y641068D01*
X151137Y640995D01*
X151201Y640903D01*
X151502Y640681D01*
X151787Y640437D01*
X151891Y640395D01*
X151981Y640329D01*
X152338Y640214D01*
X152685Y640074D01*
X152824Y640059D01*
X152903Y640033D01*
X153035Y640035D01*
X153345Y640001D01*
X313563Y640001D01*
X313841Y640046D01*
G37*
%LPC*%
G36*
X2236745Y1317999D02*
X2236745Y1317999D01*
X2217999Y1336745D01*
X2217999Y1363255D01*
X2236745Y1382001D01*
X2263255Y1382001D01*
X2282001Y1363255D01*
X2282001Y1362000D01*
X2282013Y1361923D01*
X2282005Y1361846D01*
X2282091Y1361446D01*
X2282157Y1361044D01*
X2282193Y1360975D01*
X2282210Y1360899D01*
X2282419Y1360548D01*
X2282610Y1360188D01*
X2282666Y1360134D01*
X2282706Y1360068D01*
X2283016Y1359802D01*
X2283312Y1359520D01*
X2283383Y1359487D01*
X2283442Y1359437D01*
X2283820Y1359284D01*
X2284191Y1359112D01*
X2284268Y1359103D01*
X2284340Y1359074D01*
X2285000Y1359001D01*
X2341030Y1359001D01*
X2341383Y1359059D01*
X2341740Y1359086D01*
X2341858Y1359136D01*
X2341986Y1359157D01*
X2342302Y1359324D01*
X2342632Y1359464D01*
X2342760Y1359567D01*
X2342842Y1359610D01*
X2342930Y1359703D01*
X2343150Y1359879D01*
X2449058Y1465787D01*
X2449104Y1465850D01*
X2449164Y1465899D01*
X2449287Y1466089D01*
X2449306Y1466109D01*
X2449322Y1466144D01*
X2449386Y1466243D01*
X2449624Y1466574D01*
X2449647Y1466648D01*
X2449689Y1466713D01*
X2449789Y1467109D01*
X2449909Y1467500D01*
X2449907Y1467577D01*
X2449926Y1467652D01*
X2449895Y1468059D01*
X2449884Y1468468D01*
X2449857Y1468541D01*
X2449852Y1468618D01*
X2449692Y1468994D01*
X2449552Y1469378D01*
X2449503Y1469439D01*
X2449473Y1469510D01*
X2449058Y1470029D01*
X2439480Y1479607D01*
X2433999Y1492839D01*
X2433999Y1507161D01*
X2438206Y1517317D01*
X2438294Y1517690D01*
X2438406Y1518056D01*
X2438404Y1518160D01*
X2438427Y1518260D01*
X2438391Y1518642D01*
X2438382Y1519025D01*
X2438346Y1519122D01*
X2438337Y1519225D01*
X2438181Y1519575D01*
X2438049Y1519935D01*
X2437985Y1520016D01*
X2437943Y1520110D01*
X2437684Y1520392D01*
X2437445Y1520691D01*
X2437358Y1520747D01*
X2437288Y1520823D01*
X2436952Y1521008D01*
X2436630Y1521216D01*
X2436530Y1521241D01*
X2436439Y1521291D01*
X2436062Y1521359D01*
X2435691Y1521453D01*
X2435588Y1521445D01*
X2435486Y1521463D01*
X2435107Y1521408D01*
X2434725Y1521379D01*
X2434630Y1521338D01*
X2434528Y1521323D01*
X2434186Y1521150D01*
X2433833Y1521000D01*
X2433732Y1520920D01*
X2433664Y1520885D01*
X2433572Y1520792D01*
X2433314Y1520586D01*
X2403728Y1490999D01*
X1439407Y1490999D01*
X1438953Y1490925D01*
X1438500Y1490859D01*
X1438477Y1490847D01*
X1438451Y1490843D01*
X1438046Y1490628D01*
X1437636Y1490420D01*
X1437618Y1490402D01*
X1437595Y1490390D01*
X1437279Y1490057D01*
X1436957Y1489729D01*
X1436942Y1489703D01*
X1436928Y1489688D01*
X1436895Y1489617D01*
X1436636Y1489148D01*
X1432215Y1478474D01*
X1421525Y1467784D01*
X1407559Y1461999D01*
X1392441Y1461999D01*
X1378474Y1467784D01*
X1367784Y1478474D01*
X1361999Y1492441D01*
X1361999Y1507559D01*
X1367784Y1521525D01*
X1378474Y1532215D01*
X1392441Y1538001D01*
X1407559Y1538001D01*
X1421525Y1532215D01*
X1432215Y1521525D01*
X1436636Y1510852D01*
X1436878Y1510463D01*
X1437114Y1510068D01*
X1437133Y1510051D01*
X1437147Y1510029D01*
X1437500Y1509736D01*
X1437849Y1509437D01*
X1437873Y1509427D01*
X1437893Y1509411D01*
X1438320Y1509247D01*
X1438747Y1509074D01*
X1438778Y1509071D01*
X1438797Y1509063D01*
X1438874Y1509060D01*
X1439407Y1509001D01*
X2395029Y1509001D01*
X2395383Y1509059D01*
X2395740Y1509086D01*
X2395858Y1509136D01*
X2395985Y1509157D01*
X2396302Y1509324D01*
X2396632Y1509464D01*
X2396759Y1509567D01*
X2396842Y1509610D01*
X2396930Y1509703D01*
X2397150Y1509879D01*
X2451485Y1564214D01*
X2451590Y1564360D01*
X2451723Y1564482D01*
X2451871Y1564751D01*
X2452050Y1565000D01*
X2452103Y1565172D01*
X2452190Y1565330D01*
X2452245Y1565632D01*
X2452335Y1565926D01*
X2452331Y1566106D01*
X2452363Y1566283D01*
X2452318Y1566587D01*
X2452311Y1566894D01*
X2452249Y1567064D01*
X2452223Y1567242D01*
X2452084Y1567516D01*
X2451978Y1567805D01*
X2451866Y1567945D01*
X2451784Y1568106D01*
X2451565Y1568321D01*
X2451373Y1568561D01*
X2451222Y1568658D01*
X2451093Y1568785D01*
X2450623Y1569044D01*
X2450559Y1569085D01*
X2450539Y1569090D01*
X2450512Y1569105D01*
X2449607Y1569480D01*
X2439480Y1579607D01*
X2433999Y1592839D01*
X2433999Y1607161D01*
X2439620Y1620731D01*
X2439708Y1621104D01*
X2439821Y1621471D01*
X2439818Y1621574D01*
X2439842Y1621674D01*
X2439806Y1622056D01*
X2439796Y1622439D01*
X2439760Y1622536D01*
X2439751Y1622639D01*
X2439595Y1622989D01*
X2439464Y1623349D01*
X2439399Y1623430D01*
X2439357Y1623524D01*
X2439098Y1623806D01*
X2438859Y1624106D01*
X2438772Y1624162D01*
X2438702Y1624238D01*
X2438366Y1624423D01*
X2438044Y1624630D01*
X2437944Y1624655D01*
X2437854Y1624705D01*
X2437476Y1624773D01*
X2437105Y1624867D01*
X2437002Y1624859D01*
X2436900Y1624878D01*
X2436521Y1624822D01*
X2436139Y1624793D01*
X2436044Y1624752D01*
X2435942Y1624738D01*
X2435601Y1624564D01*
X2435247Y1624414D01*
X2435147Y1624334D01*
X2435078Y1624299D01*
X2434986Y1624205D01*
X2434728Y1624000D01*
X2403728Y1592999D01*
X1440236Y1592999D01*
X1439781Y1592925D01*
X1439328Y1592859D01*
X1439305Y1592847D01*
X1439280Y1592843D01*
X1438875Y1592628D01*
X1438464Y1592420D01*
X1438446Y1592402D01*
X1438424Y1592390D01*
X1438108Y1592057D01*
X1437785Y1591729D01*
X1437771Y1591703D01*
X1437756Y1591688D01*
X1437724Y1591617D01*
X1437465Y1591148D01*
X1432215Y1578474D01*
X1421525Y1567784D01*
X1407559Y1561999D01*
X1392441Y1561999D01*
X1378474Y1567784D01*
X1367784Y1578474D01*
X1361999Y1592441D01*
X1361999Y1607559D01*
X1367784Y1621525D01*
X1378474Y1632215D01*
X1392441Y1638001D01*
X1407559Y1638001D01*
X1421525Y1632215D01*
X1432215Y1621525D01*
X1435808Y1612852D01*
X1436049Y1612463D01*
X1436285Y1612068D01*
X1436305Y1612051D01*
X1436318Y1612029D01*
X1436672Y1611736D01*
X1437021Y1611437D01*
X1437045Y1611427D01*
X1437065Y1611411D01*
X1437492Y1611247D01*
X1437919Y1611074D01*
X1437950Y1611071D01*
X1437969Y1611063D01*
X1438045Y1611060D01*
X1438579Y1611001D01*
X2395029Y1611001D01*
X2395383Y1611059D01*
X2395740Y1611086D01*
X2395858Y1611136D01*
X2395985Y1611157D01*
X2396302Y1611324D01*
X2396632Y1611464D01*
X2396759Y1611567D01*
X2396842Y1611610D01*
X2396930Y1611703D01*
X2397150Y1611879D01*
X2450071Y1664799D01*
X2450176Y1664945D01*
X2450308Y1665067D01*
X2450457Y1665337D01*
X2450636Y1665586D01*
X2450689Y1665758D01*
X2450776Y1665916D01*
X2450831Y1666218D01*
X2450921Y1666512D01*
X2450916Y1666692D01*
X2450949Y1666869D01*
X2450904Y1667173D01*
X2450896Y1667480D01*
X2450835Y1667649D01*
X2450808Y1667828D01*
X2450670Y1668101D01*
X2450564Y1668390D01*
X2450452Y1668531D01*
X2450370Y1668692D01*
X2450151Y1668907D01*
X2449959Y1669147D01*
X2449907Y1669181D01*
X2439480Y1679607D01*
X2433999Y1692839D01*
X2433999Y1707161D01*
X2439480Y1720393D01*
X2449607Y1730520D01*
X2462839Y1736001D01*
X2520030Y1736001D01*
X2520383Y1736059D01*
X2520740Y1736086D01*
X2520858Y1736136D01*
X2520986Y1736157D01*
X2521302Y1736324D01*
X2521632Y1736464D01*
X2521760Y1736567D01*
X2521842Y1736610D01*
X2521930Y1736703D01*
X2522150Y1736879D01*
X2547171Y1761900D01*
X2547394Y1762211D01*
X2547640Y1762507D01*
X2547677Y1762603D01*
X2547737Y1762687D01*
X2547849Y1763053D01*
X2547987Y1763411D01*
X2547992Y1763514D01*
X2548022Y1763613D01*
X2548012Y1763996D01*
X2548028Y1764379D01*
X2548000Y1764478D01*
X2547997Y1764581D01*
X2547866Y1764940D01*
X2547759Y1765309D01*
X2547700Y1765394D01*
X2547665Y1765491D01*
X2547425Y1765790D01*
X2547207Y1766105D01*
X2547125Y1766167D01*
X2547060Y1766248D01*
X2546738Y1766455D01*
X2546430Y1766684D01*
X2546332Y1766716D01*
X2546245Y1766772D01*
X2545875Y1766866D01*
X2545509Y1766985D01*
X2545406Y1766984D01*
X2545306Y1767009D01*
X2544924Y1766980D01*
X2544541Y1766977D01*
X2544417Y1766941D01*
X2544340Y1766935D01*
X2544219Y1766883D01*
X2543903Y1766792D01*
X2537161Y1763999D01*
X2462839Y1763999D01*
X2449607Y1769480D01*
X2439480Y1779607D01*
X2433999Y1792839D01*
X2433999Y1807161D01*
X2439480Y1820393D01*
X2449607Y1830520D01*
X2462839Y1836001D01*
X2537161Y1836001D01*
X2550393Y1830520D01*
X2560520Y1820393D01*
X2566001Y1807161D01*
X2566001Y1792839D01*
X2563208Y1786097D01*
X2563121Y1785724D01*
X2563008Y1785358D01*
X2563010Y1785254D01*
X2562987Y1785154D01*
X2563023Y1784772D01*
X2563032Y1784389D01*
X2563068Y1784292D01*
X2563078Y1784189D01*
X2563233Y1783839D01*
X2563365Y1783479D01*
X2563429Y1783398D01*
X2563471Y1783304D01*
X2563730Y1783022D01*
X2563970Y1782723D01*
X2564056Y1782667D01*
X2564126Y1782591D01*
X2564462Y1782406D01*
X2564784Y1782198D01*
X2564884Y1782173D01*
X2564975Y1782123D01*
X2565352Y1782055D01*
X2565723Y1781961D01*
X2565826Y1781969D01*
X2565928Y1781951D01*
X2566307Y1782006D01*
X2566689Y1782035D01*
X2566784Y1782076D01*
X2566886Y1782091D01*
X2567228Y1782264D01*
X2567581Y1782414D01*
X2567682Y1782494D01*
X2567750Y1782529D01*
X2567843Y1782623D01*
X2568100Y1782828D01*
X2800071Y2014799D01*
X2800176Y2014945D01*
X2800308Y2015067D01*
X2800457Y2015337D01*
X2800636Y2015586D01*
X2800689Y2015758D01*
X2800776Y2015916D01*
X2800831Y2016218D01*
X2800921Y2016512D01*
X2800916Y2016692D01*
X2800949Y2016869D01*
X2800904Y2017173D01*
X2800896Y2017480D01*
X2800835Y2017649D01*
X2800808Y2017828D01*
X2800670Y2018101D01*
X2800564Y2018390D01*
X2800452Y2018531D01*
X2800370Y2018692D01*
X2800151Y2018907D01*
X2799959Y2019147D01*
X2799906Y2019181D01*
X2789480Y2029607D01*
X2783999Y2042839D01*
X2783999Y2057161D01*
X2789480Y2070393D01*
X2799607Y2080520D01*
X2812839Y2086001D01*
X2887161Y2086001D01*
X2900393Y2080520D01*
X2910520Y2070393D01*
X2916001Y2057161D01*
X2916001Y2042839D01*
X2910520Y2029607D01*
X2900393Y2019480D01*
X2887161Y2013999D01*
X2825970Y2013999D01*
X2825617Y2013941D01*
X2825260Y2013914D01*
X2825142Y2013864D01*
X2825014Y2013843D01*
X2824698Y2013675D01*
X2824368Y2013536D01*
X2824240Y2013433D01*
X2824158Y2013390D01*
X2824070Y2013297D01*
X2823850Y2013121D01*
X2796000Y1985271D01*
X2795777Y1984961D01*
X2795532Y1984665D01*
X2795495Y1984568D01*
X2795435Y1984485D01*
X2795322Y1984119D01*
X2795184Y1983761D01*
X2795180Y1983658D01*
X2795149Y1983559D01*
X2795159Y1983176D01*
X2795143Y1982793D01*
X2795172Y1982693D01*
X2795174Y1982590D01*
X2795306Y1982231D01*
X2795412Y1981862D01*
X2795471Y1981777D01*
X2795507Y1981680D01*
X2795746Y1981381D01*
X2795964Y1981066D01*
X2796047Y1981004D01*
X2796111Y1980924D01*
X2796433Y1980717D01*
X2796741Y1980487D01*
X2796840Y1980455D01*
X2796926Y1980399D01*
X2797297Y1980306D01*
X2797662Y1980187D01*
X2797765Y1980187D01*
X2797865Y1980162D01*
X2798247Y1980192D01*
X2798631Y1980195D01*
X2798754Y1980231D01*
X2798831Y1980237D01*
X2798952Y1980288D01*
X2799269Y1980380D01*
X2812839Y1986001D01*
X2887161Y1986001D01*
X2900393Y1980520D01*
X2910520Y1970393D01*
X2916001Y1957161D01*
X2916001Y1942839D01*
X2910520Y1929607D01*
X2900393Y1919480D01*
X2887161Y1913999D01*
X2827970Y1913999D01*
X2827617Y1913941D01*
X2827260Y1913914D01*
X2827142Y1913864D01*
X2827014Y1913843D01*
X2826698Y1913675D01*
X2826368Y1913536D01*
X2826240Y1913433D01*
X2826158Y1913390D01*
X2826070Y1913297D01*
X2825850Y1913121D01*
X2548515Y1635786D01*
X2548410Y1635640D01*
X2548277Y1635518D01*
X2548129Y1635249D01*
X2547950Y1635000D01*
X2547897Y1634828D01*
X2547810Y1634670D01*
X2547755Y1634367D01*
X2547664Y1634074D01*
X2547669Y1633893D01*
X2547637Y1633716D01*
X2547681Y1633413D01*
X2547689Y1633105D01*
X2547751Y1632936D01*
X2547777Y1632758D01*
X2547916Y1632484D01*
X2548022Y1632195D01*
X2548134Y1632055D01*
X2548216Y1631894D01*
X2548434Y1631679D01*
X2548626Y1631439D01*
X2548778Y1631341D01*
X2548906Y1631215D01*
X2549377Y1630956D01*
X2549441Y1630914D01*
X2549461Y1630909D01*
X2549488Y1630894D01*
X2550393Y1630520D01*
X2560520Y1620393D01*
X2566001Y1607161D01*
X2566001Y1592839D01*
X2560520Y1579607D01*
X2550393Y1569480D01*
X2537161Y1563999D01*
X2477970Y1563999D01*
X2477617Y1563941D01*
X2477260Y1563914D01*
X2477141Y1563864D01*
X2477014Y1563843D01*
X2476698Y1563676D01*
X2476368Y1563536D01*
X2476240Y1563433D01*
X2476158Y1563390D01*
X2476070Y1563297D01*
X2475850Y1563121D01*
X2449414Y1536686D01*
X2449191Y1536375D01*
X2448946Y1536079D01*
X2448909Y1535983D01*
X2448849Y1535899D01*
X2448736Y1535533D01*
X2448599Y1535175D01*
X2448594Y1535072D01*
X2448564Y1534973D01*
X2448574Y1534590D01*
X2448557Y1534207D01*
X2448586Y1534108D01*
X2448589Y1534005D01*
X2448720Y1533645D01*
X2448827Y1533276D01*
X2448885Y1533192D01*
X2448921Y1533095D01*
X2449160Y1532795D01*
X2449379Y1532480D01*
X2449461Y1532419D01*
X2449526Y1532338D01*
X2449848Y1532131D01*
X2450156Y1531902D01*
X2450254Y1531869D01*
X2450340Y1531814D01*
X2450711Y1531720D01*
X2451076Y1531601D01*
X2451180Y1531602D01*
X2451280Y1531576D01*
X2451661Y1531606D01*
X2452045Y1531609D01*
X2452169Y1531645D01*
X2452246Y1531651D01*
X2452367Y1531702D01*
X2452683Y1531794D01*
X2462839Y1536001D01*
X2537161Y1536001D01*
X2550393Y1530520D01*
X2560520Y1520393D01*
X2566001Y1507161D01*
X2566001Y1492839D01*
X2560520Y1479607D01*
X2550393Y1469480D01*
X2537161Y1463999D01*
X2473970Y1463999D01*
X2473617Y1463941D01*
X2473260Y1463914D01*
X2473142Y1463864D01*
X2473014Y1463843D01*
X2472698Y1463675D01*
X2472368Y1463536D01*
X2472240Y1463433D01*
X2472158Y1463390D01*
X2472070Y1463297D01*
X2471850Y1463121D01*
X2355879Y1347150D01*
X2349728Y1340999D01*
X2285000Y1340999D01*
X2284923Y1340987D01*
X2284846Y1340995D01*
X2284446Y1340909D01*
X2284044Y1340843D01*
X2283975Y1340807D01*
X2283899Y1340790D01*
X2283548Y1340581D01*
X2283188Y1340390D01*
X2283134Y1340334D01*
X2283068Y1340294D01*
X2282802Y1339984D01*
X2282520Y1339688D01*
X2282487Y1339617D01*
X2282437Y1339558D01*
X2282284Y1339180D01*
X2282112Y1338809D01*
X2282103Y1338732D01*
X2282074Y1338660D01*
X2282001Y1338000D01*
X2282001Y1336745D01*
X2263255Y1317999D01*
X2236745Y1317999D01*
G37*
%LPD*%
%LPC*%
G36*
X1438272Y1748999D02*
X1438272Y1748999D01*
X1421501Y1765770D01*
X1421130Y1766037D01*
X1420760Y1766313D01*
X1420735Y1766321D01*
X1420714Y1766336D01*
X1420278Y1766470D01*
X1419839Y1766613D01*
X1419813Y1766613D01*
X1419788Y1766621D01*
X1419329Y1766609D01*
X1418870Y1766605D01*
X1418841Y1766596D01*
X1418820Y1766596D01*
X1418748Y1766570D01*
X1418232Y1766420D01*
X1407559Y1761999D01*
X1392441Y1761999D01*
X1378474Y1767784D01*
X1367784Y1778474D01*
X1361999Y1792441D01*
X1361999Y1807559D01*
X1367784Y1821525D01*
X1378474Y1832215D01*
X1392441Y1838001D01*
X1407559Y1838001D01*
X1421525Y1832215D01*
X1432215Y1821525D01*
X1438001Y1807559D01*
X1438001Y1792441D01*
X1433579Y1781768D01*
X1433474Y1781320D01*
X1433362Y1780875D01*
X1433364Y1780850D01*
X1433358Y1780825D01*
X1433401Y1780365D01*
X1433437Y1779909D01*
X1433446Y1779886D01*
X1433449Y1779860D01*
X1433636Y1779440D01*
X1433815Y1779018D01*
X1433834Y1778993D01*
X1433843Y1778975D01*
X1433894Y1778919D01*
X1434230Y1778499D01*
X1444850Y1767879D01*
X1445141Y1767670D01*
X1445412Y1767437D01*
X1445532Y1767389D01*
X1445636Y1767314D01*
X1445978Y1767208D01*
X1446310Y1767074D01*
X1446473Y1767056D01*
X1446562Y1767029D01*
X1446690Y1767032D01*
X1446970Y1767001D01*
X1855029Y1767001D01*
X1855383Y1767059D01*
X1855740Y1767086D01*
X1855858Y1767136D01*
X1855985Y1767157D01*
X1856302Y1767324D01*
X1856632Y1767464D01*
X1856759Y1767567D01*
X1856842Y1767610D01*
X1856930Y1767703D01*
X1857150Y1767879D01*
X2302150Y2212879D01*
X2302315Y2213108D01*
X2302509Y2213313D01*
X2302596Y2213499D01*
X2302716Y2213666D01*
X2302799Y2213935D01*
X2302918Y2214191D01*
X2302940Y2214395D01*
X2303001Y2214592D01*
X2302994Y2214874D01*
X2303025Y2215154D01*
X2302981Y2215355D01*
X2302976Y2215560D01*
X2302880Y2215825D01*
X2302820Y2216100D01*
X2302714Y2216277D01*
X2302644Y2216470D01*
X2302468Y2216691D01*
X2302323Y2216932D01*
X2302168Y2217066D01*
X2302039Y2217227D01*
X2301802Y2217379D01*
X2301588Y2217563D01*
X2301397Y2217640D01*
X2301224Y2217751D01*
X2300951Y2217820D01*
X2300690Y2217926D01*
X2300409Y2217957D01*
X2300285Y2217988D01*
X2300192Y2217981D01*
X2300030Y2217999D01*
X2286745Y2217999D01*
X2267999Y2236745D01*
X2267999Y2248030D01*
X2267954Y2248308D01*
X2267946Y2248590D01*
X2267876Y2248783D01*
X2267843Y2248986D01*
X2267711Y2249235D01*
X2267614Y2249500D01*
X2267486Y2249661D01*
X2267390Y2249842D01*
X2267186Y2250036D01*
X2267009Y2250256D01*
X2266836Y2250368D01*
X2266688Y2250509D01*
X2266432Y2250628D01*
X2266195Y2250781D01*
X2265996Y2250831D01*
X2265809Y2250918D01*
X2265529Y2250949D01*
X2265256Y2251018D01*
X2265051Y2251002D01*
X2264846Y2251025D01*
X2264570Y2250965D01*
X2264290Y2250944D01*
X2264101Y2250863D01*
X2263900Y2250820D01*
X2263658Y2250675D01*
X2263398Y2250565D01*
X2263177Y2250389D01*
X2263068Y2250323D01*
X2263007Y2250253D01*
X2262879Y2250150D01*
X1911879Y1899150D01*
X1905728Y1892999D01*
X1440236Y1892999D01*
X1439781Y1892925D01*
X1439328Y1892859D01*
X1439305Y1892847D01*
X1439280Y1892843D01*
X1438875Y1892628D01*
X1438464Y1892420D01*
X1438446Y1892402D01*
X1438424Y1892390D01*
X1438108Y1892057D01*
X1437785Y1891729D01*
X1437771Y1891703D01*
X1437756Y1891688D01*
X1437724Y1891617D01*
X1437465Y1891148D01*
X1432215Y1878474D01*
X1421525Y1867784D01*
X1407559Y1861999D01*
X1392441Y1861999D01*
X1378474Y1867784D01*
X1367784Y1878474D01*
X1361999Y1892441D01*
X1361999Y1907559D01*
X1367784Y1921525D01*
X1378474Y1932215D01*
X1392441Y1938001D01*
X1407559Y1938001D01*
X1421525Y1932215D01*
X1432215Y1921525D01*
X1435808Y1912852D01*
X1436049Y1912463D01*
X1436285Y1912068D01*
X1436305Y1912051D01*
X1436318Y1912029D01*
X1436672Y1911736D01*
X1437021Y1911437D01*
X1437045Y1911427D01*
X1437065Y1911411D01*
X1437492Y1911247D01*
X1437919Y1911074D01*
X1437950Y1911071D01*
X1437969Y1911063D01*
X1438045Y1911060D01*
X1438579Y1911001D01*
X1897029Y1911001D01*
X1897383Y1911059D01*
X1897740Y1911086D01*
X1897858Y1911136D01*
X1897985Y1911157D01*
X1898302Y1911324D01*
X1898632Y1911464D01*
X1898759Y1911567D01*
X1898842Y1911610D01*
X1898930Y1911703D01*
X1899150Y1911879D01*
X2300150Y2312879D01*
X2300315Y2313108D01*
X2300509Y2313313D01*
X2300596Y2313499D01*
X2300716Y2313666D01*
X2300799Y2313935D01*
X2300918Y2314191D01*
X2300940Y2314395D01*
X2301001Y2314592D01*
X2300994Y2314874D01*
X2301025Y2315154D01*
X2300981Y2315355D01*
X2300976Y2315560D01*
X2300880Y2315825D01*
X2300820Y2316100D01*
X2300714Y2316277D01*
X2300644Y2316470D01*
X2300468Y2316691D01*
X2300323Y2316932D01*
X2300168Y2317066D01*
X2300039Y2317227D01*
X2299802Y2317379D01*
X2299588Y2317563D01*
X2299397Y2317640D01*
X2299224Y2317751D01*
X2298951Y2317820D01*
X2298690Y2317926D01*
X2298409Y2317957D01*
X2298285Y2317988D01*
X2298192Y2317981D01*
X2298030Y2317999D01*
X2286745Y2317999D01*
X2267999Y2336745D01*
X2267999Y2340000D01*
X2267987Y2340077D01*
X2267995Y2340154D01*
X2267909Y2340553D01*
X2267843Y2340956D01*
X2267807Y2341024D01*
X2267790Y2341100D01*
X2267581Y2341452D01*
X2267390Y2341812D01*
X2267334Y2341866D01*
X2267294Y2341932D01*
X2266984Y2342198D01*
X2266688Y2342480D01*
X2266617Y2342512D01*
X2266558Y2342563D01*
X2266180Y2342716D01*
X2265809Y2342888D01*
X2265732Y2342897D01*
X2265660Y2342926D01*
X2265000Y2342999D01*
X2035000Y2342999D01*
X2034923Y2342987D01*
X2034846Y2342995D01*
X2034446Y2342909D01*
X2034044Y2342843D01*
X2033975Y2342807D01*
X2033899Y2342790D01*
X2033548Y2342581D01*
X2033188Y2342390D01*
X2033134Y2342334D01*
X2033068Y2342294D01*
X2032802Y2341984D01*
X2032520Y2341688D01*
X2032487Y2341617D01*
X2032437Y2341558D01*
X2032284Y2341180D01*
X2032112Y2340809D01*
X2032103Y2340732D01*
X2032074Y2340660D01*
X2032001Y2340000D01*
X2032001Y2336745D01*
X2013255Y2317999D01*
X1986745Y2317999D01*
X1967999Y2336745D01*
X1967999Y2363255D01*
X1986745Y2382001D01*
X2013255Y2382001D01*
X2032146Y2363109D01*
X2032157Y2363044D01*
X2032193Y2362975D01*
X2032210Y2362899D01*
X2032419Y2362548D01*
X2032610Y2362188D01*
X2032666Y2362134D01*
X2032706Y2362068D01*
X2033016Y2361802D01*
X2033312Y2361520D01*
X2033383Y2361487D01*
X2033442Y2361437D01*
X2033820Y2361284D01*
X2034191Y2361112D01*
X2034268Y2361103D01*
X2034340Y2361074D01*
X2035000Y2361001D01*
X2265000Y2361001D01*
X2265077Y2361013D01*
X2265154Y2361005D01*
X2265553Y2361091D01*
X2265956Y2361157D01*
X2266024Y2361193D01*
X2266100Y2361210D01*
X2266452Y2361419D01*
X2266812Y2361610D01*
X2266866Y2361666D01*
X2266932Y2361706D01*
X2267198Y2362016D01*
X2267480Y2362312D01*
X2267512Y2362383D01*
X2267563Y2362442D01*
X2267716Y2362820D01*
X2267847Y2363103D01*
X2286745Y2382001D01*
X2313255Y2382001D01*
X2332001Y2363255D01*
X2332001Y2351970D01*
X2332046Y2351692D01*
X2332053Y2351410D01*
X2332124Y2351217D01*
X2332157Y2351014D01*
X2332289Y2350765D01*
X2332386Y2350500D01*
X2332514Y2350339D01*
X2332610Y2350158D01*
X2332814Y2349964D01*
X2332991Y2349743D01*
X2333163Y2349632D01*
X2333312Y2349491D01*
X2333568Y2349372D01*
X2333805Y2349219D01*
X2334004Y2349169D01*
X2334191Y2349082D01*
X2334471Y2349051D01*
X2334744Y2348982D01*
X2334949Y2348998D01*
X2335154Y2348975D01*
X2335430Y2349035D01*
X2335710Y2349056D01*
X2335899Y2349137D01*
X2336100Y2349180D01*
X2336342Y2349324D01*
X2336602Y2349435D01*
X2336822Y2349611D01*
X2336932Y2349676D01*
X2336993Y2349747D01*
X2337121Y2349849D01*
X2342272Y2355001D01*
X2781100Y2355001D01*
X2781555Y2355075D01*
X2782008Y2355141D01*
X2782031Y2355153D01*
X2782056Y2355157D01*
X2782461Y2355371D01*
X2782872Y2355580D01*
X2782890Y2355598D01*
X2782913Y2355610D01*
X2783229Y2355943D01*
X2783551Y2356270D01*
X2783566Y2356297D01*
X2783580Y2356312D01*
X2783613Y2356383D01*
X2783871Y2356852D01*
X2789480Y2370393D01*
X2799607Y2380520D01*
X2812839Y2386001D01*
X2887161Y2386001D01*
X2900393Y2380520D01*
X2910520Y2370393D01*
X2916001Y2357161D01*
X2916001Y2342839D01*
X2910520Y2329607D01*
X2900393Y2319480D01*
X2887161Y2313999D01*
X2812839Y2313999D01*
X2799607Y2319480D01*
X2789480Y2329607D01*
X2787185Y2335148D01*
X2786944Y2335537D01*
X2786708Y2335932D01*
X2786688Y2335949D01*
X2786675Y2335971D01*
X2786322Y2336263D01*
X2785972Y2336563D01*
X2785948Y2336572D01*
X2785929Y2336589D01*
X2785501Y2336753D01*
X2785074Y2336926D01*
X2785044Y2336929D01*
X2785024Y2336937D01*
X2784948Y2336940D01*
X2784414Y2336999D01*
X2350970Y2336999D01*
X2350617Y2336941D01*
X2350260Y2336914D01*
X2350142Y2336864D01*
X2350014Y2336843D01*
X2349698Y2336675D01*
X2349368Y2336536D01*
X2349240Y2336433D01*
X2349158Y2336390D01*
X2349070Y2336297D01*
X2348850Y2336121D01*
X2299849Y2287121D01*
X2299685Y2286892D01*
X2299491Y2286687D01*
X2299404Y2286501D01*
X2299284Y2286334D01*
X2299201Y2286065D01*
X2299082Y2285809D01*
X2299059Y2285605D01*
X2298999Y2285408D01*
X2299006Y2285126D01*
X2298975Y2284846D01*
X2299018Y2284645D01*
X2299024Y2284440D01*
X2299120Y2284175D01*
X2299180Y2283899D01*
X2299285Y2283723D01*
X2299356Y2283530D01*
X2299532Y2283309D01*
X2299676Y2283068D01*
X2299833Y2282934D01*
X2299961Y2282773D01*
X2300198Y2282621D01*
X2300412Y2282437D01*
X2300603Y2282360D01*
X2300775Y2282249D01*
X2301049Y2282180D01*
X2301310Y2282074D01*
X2301591Y2282043D01*
X2301715Y2282012D01*
X2301808Y2282019D01*
X2301970Y2282001D01*
X2313255Y2282001D01*
X2332001Y2263255D01*
X2332001Y2249970D01*
X2332046Y2249692D01*
X2332053Y2249410D01*
X2332124Y2249217D01*
X2332157Y2249014D01*
X2332289Y2248765D01*
X2332386Y2248500D01*
X2332514Y2248339D01*
X2332610Y2248158D01*
X2332814Y2247964D01*
X2332991Y2247743D01*
X2333163Y2247632D01*
X2333312Y2247491D01*
X2333568Y2247372D01*
X2333805Y2247219D01*
X2334004Y2247169D01*
X2334191Y2247082D01*
X2334471Y2247051D01*
X2334744Y2246982D01*
X2334949Y2246998D01*
X2335154Y2246975D01*
X2335430Y2247035D01*
X2335710Y2247056D01*
X2335899Y2247137D01*
X2336100Y2247180D01*
X2336342Y2247324D01*
X2336602Y2247435D01*
X2336822Y2247611D01*
X2336932Y2247676D01*
X2336993Y2247747D01*
X2337121Y2247849D01*
X2348272Y2259001D01*
X2782757Y2259001D01*
X2783212Y2259075D01*
X2783665Y2259141D01*
X2783688Y2259153D01*
X2783713Y2259157D01*
X2784118Y2259371D01*
X2784529Y2259580D01*
X2784547Y2259598D01*
X2784570Y2259610D01*
X2784885Y2259943D01*
X2785208Y2260270D01*
X2785222Y2260297D01*
X2785237Y2260312D01*
X2785270Y2260383D01*
X2785528Y2260852D01*
X2789480Y2270393D01*
X2799607Y2280520D01*
X2812839Y2286001D01*
X2887161Y2286001D01*
X2900393Y2280520D01*
X2910520Y2270393D01*
X2916001Y2257161D01*
X2916001Y2242839D01*
X2910520Y2229607D01*
X2900393Y2219480D01*
X2887161Y2213999D01*
X2812839Y2213999D01*
X2799607Y2219480D01*
X2789480Y2229607D01*
X2785528Y2239148D01*
X2785287Y2239537D01*
X2785051Y2239932D01*
X2785031Y2239949D01*
X2785018Y2239971D01*
X2784665Y2240263D01*
X2784315Y2240563D01*
X2784291Y2240572D01*
X2784272Y2240589D01*
X2783844Y2240753D01*
X2783417Y2240926D01*
X2783387Y2240929D01*
X2783367Y2240937D01*
X2783291Y2240940D01*
X2782757Y2240999D01*
X2356970Y2240999D01*
X2356617Y2240941D01*
X2356260Y2240914D01*
X2356142Y2240864D01*
X2356014Y2240843D01*
X2355698Y2240675D01*
X2355368Y2240536D01*
X2355240Y2240433D01*
X2355158Y2240390D01*
X2355070Y2240297D01*
X2354850Y2240121D01*
X1863728Y1748999D01*
X1438272Y1748999D01*
G37*
%LPD*%
%LPC*%
G36*
X1936745Y867999D02*
X1936745Y867999D01*
X1917999Y886745D01*
X1917999Y913255D01*
X1936745Y932001D01*
X1938000Y932001D01*
X1938077Y932013D01*
X1938154Y932005D01*
X1938553Y932091D01*
X1938956Y932157D01*
X1939024Y932193D01*
X1939100Y932210D01*
X1939452Y932419D01*
X1939812Y932610D01*
X1939866Y932666D01*
X1939932Y932706D01*
X1940198Y933016D01*
X1940480Y933312D01*
X1940512Y933383D01*
X1940563Y933442D01*
X1940716Y933820D01*
X1940888Y934191D01*
X1940897Y934268D01*
X1940926Y934340D01*
X1940999Y935000D01*
X1940999Y1038000D01*
X1940987Y1038077D01*
X1940995Y1038154D01*
X1940909Y1038553D01*
X1940843Y1038956D01*
X1940807Y1039024D01*
X1940790Y1039100D01*
X1940581Y1039452D01*
X1940390Y1039812D01*
X1940334Y1039866D01*
X1940294Y1039932D01*
X1939984Y1040198D01*
X1939688Y1040480D01*
X1939617Y1040512D01*
X1939558Y1040563D01*
X1939180Y1040716D01*
X1938809Y1040888D01*
X1938732Y1040897D01*
X1938660Y1040926D01*
X1938000Y1040999D01*
X1748272Y1040999D01*
X1422915Y1366356D01*
X1422544Y1366623D01*
X1422174Y1366898D01*
X1422149Y1366906D01*
X1422128Y1366921D01*
X1421692Y1367056D01*
X1421253Y1367199D01*
X1421227Y1367199D01*
X1421203Y1367207D01*
X1420743Y1367195D01*
X1420284Y1367191D01*
X1420255Y1367182D01*
X1420234Y1367182D01*
X1420162Y1367156D01*
X1419646Y1367006D01*
X1407559Y1361999D01*
X1392441Y1361999D01*
X1378474Y1367784D01*
X1367784Y1378474D01*
X1364192Y1387148D01*
X1363952Y1387535D01*
X1363715Y1387932D01*
X1363695Y1387949D01*
X1363681Y1387971D01*
X1363328Y1388263D01*
X1362979Y1388563D01*
X1362955Y1388572D01*
X1362935Y1388589D01*
X1362508Y1388753D01*
X1362081Y1388926D01*
X1362050Y1388929D01*
X1362031Y1388937D01*
X1361954Y1388940D01*
X1361421Y1388999D01*
X1222970Y1388999D01*
X1222617Y1388941D01*
X1222260Y1388914D01*
X1222142Y1388864D01*
X1222014Y1388843D01*
X1221698Y1388675D01*
X1221368Y1388536D01*
X1221240Y1388433D01*
X1221158Y1388390D01*
X1221070Y1388297D01*
X1220850Y1388121D01*
X927935Y1095206D01*
X927668Y1094835D01*
X927393Y1094465D01*
X927385Y1094440D01*
X927370Y1094420D01*
X927235Y1093984D01*
X927092Y1093544D01*
X927092Y1093519D01*
X927085Y1093494D01*
X927096Y1093035D01*
X927100Y1092576D01*
X927109Y1092546D01*
X927109Y1092525D01*
X927136Y1092454D01*
X927285Y1091938D01*
X932001Y1080554D01*
X932001Y1063446D01*
X925454Y1047642D01*
X913358Y1035546D01*
X897554Y1028999D01*
X880446Y1028999D01*
X864642Y1035546D01*
X852546Y1047642D01*
X845999Y1063446D01*
X845999Y1080554D01*
X852546Y1096358D01*
X864642Y1108454D01*
X880446Y1115001D01*
X897554Y1115001D01*
X913180Y1108528D01*
X913628Y1108423D01*
X914073Y1108310D01*
X914098Y1108312D01*
X914124Y1108306D01*
X914584Y1108350D01*
X915039Y1108385D01*
X915062Y1108395D01*
X915088Y1108397D01*
X915510Y1108585D01*
X915930Y1108763D01*
X915955Y1108782D01*
X915973Y1108791D01*
X916029Y1108842D01*
X916449Y1109178D01*
X1214272Y1407001D01*
X1359764Y1407001D01*
X1360219Y1407075D01*
X1360672Y1407141D01*
X1360695Y1407153D01*
X1360720Y1407157D01*
X1361125Y1407371D01*
X1361535Y1407580D01*
X1361554Y1407598D01*
X1361576Y1407610D01*
X1361892Y1407943D01*
X1362214Y1408270D01*
X1362229Y1408297D01*
X1362244Y1408312D01*
X1362276Y1408383D01*
X1362535Y1408852D01*
X1367784Y1421525D01*
X1378474Y1432215D01*
X1392441Y1438001D01*
X1407559Y1438001D01*
X1421525Y1432215D01*
X1432215Y1421525D01*
X1438001Y1407559D01*
X1438001Y1392441D01*
X1434165Y1383182D01*
X1434060Y1382734D01*
X1433948Y1382290D01*
X1433950Y1382264D01*
X1433944Y1382239D01*
X1433987Y1381779D01*
X1434022Y1381324D01*
X1434032Y1381300D01*
X1434035Y1381274D01*
X1434222Y1380854D01*
X1434401Y1380432D01*
X1434420Y1380408D01*
X1434428Y1380389D01*
X1434479Y1380334D01*
X1434815Y1379913D01*
X1754850Y1059879D01*
X1755141Y1059670D01*
X1755412Y1059437D01*
X1755532Y1059389D01*
X1755636Y1059314D01*
X1755978Y1059208D01*
X1756310Y1059074D01*
X1756473Y1059056D01*
X1756562Y1059029D01*
X1756690Y1059032D01*
X1756970Y1059001D01*
X1845029Y1059001D01*
X1845383Y1059059D01*
X1845740Y1059086D01*
X1845858Y1059136D01*
X1845985Y1059157D01*
X1846302Y1059324D01*
X1846632Y1059464D01*
X1846759Y1059567D01*
X1846842Y1059610D01*
X1846930Y1059703D01*
X1847150Y1059879D01*
X2118887Y1331616D01*
X2118932Y1331679D01*
X2118993Y1331727D01*
X2119214Y1332071D01*
X2119452Y1332402D01*
X2119475Y1332476D01*
X2119517Y1332542D01*
X2119617Y1332938D01*
X2119737Y1333328D01*
X2119735Y1333406D01*
X2119754Y1333481D01*
X2119723Y1333888D01*
X2119713Y1334297D01*
X2119686Y1334369D01*
X2119680Y1334447D01*
X2119521Y1334822D01*
X2119380Y1335207D01*
X2119332Y1335267D01*
X2119302Y1335339D01*
X2118887Y1335857D01*
X2117999Y1336745D01*
X2117999Y1363255D01*
X2136745Y1382001D01*
X2163255Y1382001D01*
X2182001Y1363255D01*
X2182001Y1336745D01*
X2163255Y1317999D01*
X2136745Y1317999D01*
X2135857Y1318887D01*
X2135795Y1318932D01*
X2135746Y1318993D01*
X2135402Y1319214D01*
X2135071Y1319452D01*
X2134996Y1319475D01*
X2134931Y1319517D01*
X2134536Y1319617D01*
X2134145Y1319737D01*
X2134067Y1319735D01*
X2133992Y1319754D01*
X2133585Y1319723D01*
X2133177Y1319713D01*
X2133104Y1319686D01*
X2133026Y1319680D01*
X2132650Y1319520D01*
X2132266Y1319380D01*
X2132206Y1319332D01*
X2132134Y1319302D01*
X2131616Y1318887D01*
X1876849Y1064121D01*
X1876685Y1063892D01*
X1876491Y1063687D01*
X1876404Y1063501D01*
X1876284Y1063334D01*
X1876201Y1063065D01*
X1876082Y1062809D01*
X1876059Y1062605D01*
X1875999Y1062408D01*
X1876006Y1062126D01*
X1875975Y1061846D01*
X1876018Y1061645D01*
X1876024Y1061440D01*
X1876120Y1061175D01*
X1876180Y1060899D01*
X1876285Y1060723D01*
X1876356Y1060530D01*
X1876532Y1060309D01*
X1876676Y1060068D01*
X1876832Y1059934D01*
X1876961Y1059773D01*
X1877198Y1059620D01*
X1877412Y1059437D01*
X1877603Y1059360D01*
X1877775Y1059249D01*
X1878049Y1059180D01*
X1878310Y1059074D01*
X1878591Y1059043D01*
X1878715Y1059012D01*
X1878808Y1059019D01*
X1878970Y1059001D01*
X1953728Y1059001D01*
X1959001Y1053728D01*
X1959001Y935000D01*
X1959013Y934923D01*
X1959005Y934846D01*
X1959091Y934446D01*
X1959157Y934044D01*
X1959193Y933975D01*
X1959210Y933899D01*
X1959419Y933548D01*
X1959610Y933188D01*
X1959666Y933134D01*
X1959706Y933068D01*
X1960016Y932802D01*
X1960312Y932520D01*
X1960383Y932487D01*
X1960442Y932437D01*
X1960820Y932284D01*
X1961191Y932112D01*
X1961268Y932103D01*
X1961340Y932074D01*
X1962000Y932001D01*
X1963255Y932001D01*
X1982001Y913255D01*
X1982001Y886745D01*
X1963255Y867999D01*
X1936745Y867999D01*
G37*
%LPD*%
%LPC*%
G36*
X1392441Y1661999D02*
X1392441Y1661999D01*
X1378474Y1667784D01*
X1367784Y1678474D01*
X1361999Y1692441D01*
X1361999Y1707559D01*
X1367784Y1721525D01*
X1378474Y1732215D01*
X1392441Y1738001D01*
X1407559Y1738001D01*
X1421525Y1732215D01*
X1432215Y1721525D01*
X1434980Y1714852D01*
X1435221Y1714463D01*
X1435457Y1714068D01*
X1435476Y1714051D01*
X1435490Y1714029D01*
X1435843Y1713736D01*
X1436192Y1713437D01*
X1436216Y1713427D01*
X1436236Y1713411D01*
X1436663Y1713247D01*
X1437090Y1713074D01*
X1437121Y1713071D01*
X1437140Y1713063D01*
X1437217Y1713060D01*
X1437750Y1713001D01*
X1885029Y1713001D01*
X1885383Y1713059D01*
X1885740Y1713086D01*
X1885858Y1713136D01*
X1885985Y1713157D01*
X1886302Y1713324D01*
X1886632Y1713464D01*
X1886759Y1713567D01*
X1886842Y1713610D01*
X1886930Y1713703D01*
X1887150Y1713879D01*
X2330272Y2157001D01*
X2781929Y2157001D01*
X2782384Y2157075D01*
X2782836Y2157141D01*
X2782859Y2157153D01*
X2782885Y2157157D01*
X2783290Y2157371D01*
X2783700Y2157580D01*
X2783719Y2157598D01*
X2783741Y2157610D01*
X2784057Y2157943D01*
X2784379Y2158270D01*
X2784394Y2158297D01*
X2784408Y2158312D01*
X2784441Y2158383D01*
X2784700Y2158852D01*
X2789480Y2170393D01*
X2799607Y2180520D01*
X2812839Y2186001D01*
X2887161Y2186001D01*
X2900393Y2180520D01*
X2910520Y2170393D01*
X2916001Y2157161D01*
X2916001Y2142839D01*
X2910520Y2129607D01*
X2900393Y2119480D01*
X2887161Y2113999D01*
X2812839Y2113999D01*
X2799607Y2119480D01*
X2789480Y2129607D01*
X2786357Y2137148D01*
X2786115Y2137537D01*
X2785880Y2137932D01*
X2785860Y2137949D01*
X2785846Y2137971D01*
X2785493Y2138263D01*
X2785144Y2138563D01*
X2785120Y2138572D01*
X2785100Y2138589D01*
X2784673Y2138753D01*
X2784246Y2138926D01*
X2784215Y2138929D01*
X2784196Y2138937D01*
X2784119Y2138940D01*
X2783586Y2138999D01*
X2338970Y2138999D01*
X2338617Y2138941D01*
X2338260Y2138914D01*
X2338142Y2138864D01*
X2338014Y2138843D01*
X2337698Y2138675D01*
X2337368Y2138536D01*
X2337240Y2138433D01*
X2337158Y2138390D01*
X2337070Y2138297D01*
X2336850Y2138121D01*
X1893728Y1694999D01*
X1441000Y1694999D01*
X1440923Y1694987D01*
X1440846Y1694995D01*
X1440446Y1694909D01*
X1440044Y1694843D01*
X1439975Y1694807D01*
X1439899Y1694790D01*
X1439548Y1694581D01*
X1439188Y1694390D01*
X1439134Y1694334D01*
X1439068Y1694294D01*
X1438802Y1693984D01*
X1438520Y1693688D01*
X1438487Y1693617D01*
X1438437Y1693558D01*
X1438284Y1693180D01*
X1438112Y1692809D01*
X1438103Y1692732D01*
X1438074Y1692660D01*
X1438068Y1692603D01*
X1432215Y1678474D01*
X1421525Y1667784D01*
X1407559Y1661999D01*
X1392441Y1661999D01*
G37*
%LPD*%
%LPC*%
G36*
X1392441Y2461999D02*
X1392441Y2461999D01*
X1378474Y2467784D01*
X1367784Y2478474D01*
X1361999Y2492441D01*
X1361999Y2507559D01*
X1367784Y2521525D01*
X1378474Y2532215D01*
X1392441Y2538001D01*
X1407559Y2538001D01*
X1419646Y2532994D01*
X1420094Y2532889D01*
X1420539Y2532776D01*
X1420564Y2532778D01*
X1420589Y2532772D01*
X1421050Y2532816D01*
X1421504Y2532851D01*
X1421528Y2532861D01*
X1421554Y2532863D01*
X1421976Y2533051D01*
X1422396Y2533229D01*
X1422421Y2533248D01*
X1422439Y2533257D01*
X1422495Y2533308D01*
X1422915Y2533644D01*
X1448272Y2559001D01*
X2782757Y2559001D01*
X2783212Y2559075D01*
X2783665Y2559141D01*
X2783688Y2559153D01*
X2783713Y2559157D01*
X2784118Y2559371D01*
X2784529Y2559580D01*
X2784547Y2559598D01*
X2784570Y2559610D01*
X2784885Y2559943D01*
X2785208Y2560270D01*
X2785222Y2560297D01*
X2785237Y2560312D01*
X2785270Y2560383D01*
X2785528Y2560852D01*
X2789480Y2570393D01*
X2799607Y2580520D01*
X2812839Y2586001D01*
X2887161Y2586001D01*
X2900393Y2580520D01*
X2910520Y2570393D01*
X2916001Y2557161D01*
X2916001Y2542839D01*
X2910520Y2529607D01*
X2900393Y2519480D01*
X2887161Y2513999D01*
X2812839Y2513999D01*
X2799607Y2519480D01*
X2789480Y2529607D01*
X2785528Y2539148D01*
X2785287Y2539537D01*
X2785051Y2539932D01*
X2785031Y2539949D01*
X2785018Y2539971D01*
X2784665Y2540263D01*
X2784315Y2540563D01*
X2784291Y2540572D01*
X2784272Y2540589D01*
X2783844Y2540753D01*
X2783417Y2540926D01*
X2783387Y2540929D01*
X2783367Y2540937D01*
X2783291Y2540940D01*
X2782757Y2540999D01*
X1456970Y2540999D01*
X1456617Y2540941D01*
X1456260Y2540914D01*
X1456142Y2540864D01*
X1456014Y2540843D01*
X1455698Y2540675D01*
X1455368Y2540536D01*
X1455240Y2540433D01*
X1455158Y2540390D01*
X1455070Y2540297D01*
X1454850Y2540121D01*
X1434815Y2520087D01*
X1434548Y2519715D01*
X1434273Y2519345D01*
X1434265Y2519321D01*
X1434250Y2519300D01*
X1434115Y2518863D01*
X1433972Y2518425D01*
X1433972Y2518399D01*
X1433965Y2518374D01*
X1433977Y2517915D01*
X1433981Y2517456D01*
X1433989Y2517426D01*
X1433990Y2517406D01*
X1434016Y2517334D01*
X1434165Y2516818D01*
X1438001Y2507559D01*
X1438001Y2492441D01*
X1432215Y2478474D01*
X1421525Y2467784D01*
X1407559Y2461999D01*
X1392441Y2461999D01*
G37*
%LPD*%
%LPC*%
G36*
X1392441Y2361999D02*
X1392441Y2361999D01*
X1378474Y2367784D01*
X1367784Y2378474D01*
X1361999Y2392441D01*
X1361999Y2407559D01*
X1367784Y2421525D01*
X1378474Y2432215D01*
X1392441Y2438001D01*
X1407559Y2438001D01*
X1421061Y2432408D01*
X1421509Y2432303D01*
X1421953Y2432190D01*
X1421978Y2432192D01*
X1422004Y2432187D01*
X1422464Y2432230D01*
X1422919Y2432265D01*
X1422942Y2432275D01*
X1422968Y2432277D01*
X1423387Y2432464D01*
X1423811Y2432643D01*
X1423835Y2432663D01*
X1423853Y2432671D01*
X1423909Y2432722D01*
X1424329Y2433058D01*
X1448272Y2457001D01*
X2781929Y2457001D01*
X2782384Y2457075D01*
X2782836Y2457141D01*
X2782859Y2457153D01*
X2782885Y2457157D01*
X2783290Y2457371D01*
X2783700Y2457580D01*
X2783719Y2457598D01*
X2783741Y2457610D01*
X2784057Y2457943D01*
X2784379Y2458270D01*
X2784394Y2458297D01*
X2784408Y2458312D01*
X2784441Y2458383D01*
X2784700Y2458852D01*
X2789480Y2470393D01*
X2799607Y2480520D01*
X2812839Y2486001D01*
X2887161Y2486001D01*
X2900393Y2480520D01*
X2910520Y2470393D01*
X2916001Y2457161D01*
X2916001Y2442839D01*
X2910520Y2429607D01*
X2900393Y2419480D01*
X2887161Y2413999D01*
X2812839Y2413999D01*
X2799607Y2419480D01*
X2789480Y2429607D01*
X2786357Y2437148D01*
X2786115Y2437537D01*
X2785880Y2437932D01*
X2785860Y2437949D01*
X2785846Y2437971D01*
X2785493Y2438263D01*
X2785144Y2438563D01*
X2785120Y2438572D01*
X2785100Y2438589D01*
X2784673Y2438753D01*
X2784246Y2438926D01*
X2784215Y2438929D01*
X2784196Y2438937D01*
X2784119Y2438940D01*
X2783586Y2438999D01*
X1456970Y2438999D01*
X1456617Y2438941D01*
X1456260Y2438914D01*
X1456142Y2438864D01*
X1456014Y2438843D01*
X1455698Y2438675D01*
X1455368Y2438536D01*
X1455240Y2438433D01*
X1455158Y2438390D01*
X1455070Y2438297D01*
X1454850Y2438121D01*
X1435401Y2418672D01*
X1435134Y2418301D01*
X1434859Y2417931D01*
X1434851Y2417906D01*
X1434836Y2417886D01*
X1434702Y2417450D01*
X1434558Y2417010D01*
X1434558Y2416985D01*
X1434551Y2416960D01*
X1434563Y2416501D01*
X1434566Y2416042D01*
X1434575Y2416012D01*
X1434576Y2415992D01*
X1434602Y2415920D01*
X1434751Y2415404D01*
X1438001Y2407559D01*
X1438001Y2392441D01*
X1432215Y2378474D01*
X1421525Y2367784D01*
X1407559Y2361999D01*
X1392441Y2361999D01*
G37*
%LPD*%
%LPC*%
G36*
X1392441Y2661999D02*
X1392441Y2661999D01*
X1378474Y2667784D01*
X1367784Y2678474D01*
X1361999Y2692441D01*
X1361999Y2707559D01*
X1365835Y2716818D01*
X1365940Y2717266D01*
X1366052Y2717710D01*
X1366050Y2717736D01*
X1366056Y2717761D01*
X1366013Y2718221D01*
X1365978Y2718676D01*
X1365968Y2718700D01*
X1365965Y2718726D01*
X1365779Y2719145D01*
X1365599Y2719568D01*
X1365580Y2719592D01*
X1365572Y2719611D01*
X1365521Y2719666D01*
X1365185Y2720087D01*
X1299150Y2786121D01*
X1298859Y2786330D01*
X1298588Y2786563D01*
X1298468Y2786611D01*
X1298364Y2786686D01*
X1298022Y2786791D01*
X1297689Y2786926D01*
X1297527Y2786944D01*
X1297438Y2786971D01*
X1297310Y2786968D01*
X1297029Y2786999D01*
X265586Y2786999D01*
X265131Y2786925D01*
X264678Y2786859D01*
X264655Y2786847D01*
X264630Y2786843D01*
X264225Y2786628D01*
X263814Y2786420D01*
X263796Y2786402D01*
X263773Y2786390D01*
X263458Y2786057D01*
X263135Y2785729D01*
X263121Y2785703D01*
X263106Y2785688D01*
X263073Y2785617D01*
X262815Y2785148D01*
X260520Y2779607D01*
X250393Y2769480D01*
X237161Y2763999D01*
X162839Y2763999D01*
X149607Y2769480D01*
X139480Y2779607D01*
X133999Y2792839D01*
X133999Y2807161D01*
X139480Y2820393D01*
X149607Y2830520D01*
X162839Y2836001D01*
X237161Y2836001D01*
X250393Y2830520D01*
X260520Y2820393D01*
X266129Y2806852D01*
X266370Y2806463D01*
X266606Y2806068D01*
X266625Y2806051D01*
X266639Y2806029D01*
X266992Y2805736D01*
X267341Y2805437D01*
X267365Y2805427D01*
X267385Y2805411D01*
X267812Y2805247D01*
X268239Y2805074D01*
X268270Y2805071D01*
X268289Y2805063D01*
X268366Y2805060D01*
X268899Y2805001D01*
X1305728Y2805001D01*
X1377085Y2733644D01*
X1377456Y2733377D01*
X1377826Y2733102D01*
X1377851Y2733093D01*
X1377871Y2733078D01*
X1378307Y2732944D01*
X1378747Y2732801D01*
X1378773Y2732801D01*
X1378797Y2732793D01*
X1379256Y2732805D01*
X1379715Y2732809D01*
X1379745Y2732818D01*
X1379766Y2732818D01*
X1379837Y2732844D01*
X1380353Y2732994D01*
X1392441Y2738001D01*
X1407559Y2738001D01*
X1421525Y2732215D01*
X1432215Y2721525D01*
X1438001Y2707559D01*
X1438001Y2692441D01*
X1432215Y2678474D01*
X1421525Y2667784D01*
X1407559Y2661999D01*
X1392441Y2661999D01*
G37*
%LPD*%
%LPC*%
G36*
X286745Y2117999D02*
X286745Y2117999D01*
X267999Y2136745D01*
X267999Y2163255D01*
X286745Y2182001D01*
X288000Y2182001D01*
X288077Y2182013D01*
X288154Y2182005D01*
X288553Y2182091D01*
X288956Y2182157D01*
X289024Y2182193D01*
X289100Y2182210D01*
X289452Y2182419D01*
X289812Y2182610D01*
X289866Y2182666D01*
X289932Y2182706D01*
X290198Y2183016D01*
X290480Y2183312D01*
X290512Y2183383D01*
X290563Y2183442D01*
X290716Y2183820D01*
X290888Y2184191D01*
X290897Y2184268D01*
X290926Y2184340D01*
X290999Y2185000D01*
X290999Y2197029D01*
X290941Y2197383D01*
X290914Y2197740D01*
X290864Y2197858D01*
X290843Y2197985D01*
X290675Y2198302D01*
X290536Y2198632D01*
X290433Y2198759D01*
X290390Y2198842D01*
X290297Y2198930D01*
X290121Y2199150D01*
X226150Y2263121D01*
X225859Y2263330D01*
X225588Y2263563D01*
X225468Y2263611D01*
X225364Y2263686D01*
X225022Y2263791D01*
X224689Y2263926D01*
X224527Y2263944D01*
X224438Y2263971D01*
X224310Y2263968D01*
X224029Y2263999D01*
X162839Y2263999D01*
X149607Y2269480D01*
X139480Y2279607D01*
X133999Y2292839D01*
X133999Y2307161D01*
X139480Y2320393D01*
X149607Y2330520D01*
X162839Y2336001D01*
X237161Y2336001D01*
X250393Y2330520D01*
X260520Y2320393D01*
X266001Y2307161D01*
X266001Y2292839D01*
X260520Y2279607D01*
X250117Y2269204D01*
X250079Y2269181D01*
X250010Y2269097D01*
X249971Y2269058D01*
X249953Y2269033D01*
X249823Y2268930D01*
X249657Y2268671D01*
X249461Y2268435D01*
X249397Y2268266D01*
X249299Y2268115D01*
X249224Y2267817D01*
X249114Y2267530D01*
X249106Y2267350D01*
X249062Y2267176D01*
X249085Y2266870D01*
X249072Y2266563D01*
X249122Y2266389D01*
X249136Y2266210D01*
X249256Y2265928D01*
X249342Y2265632D01*
X249444Y2265484D01*
X249515Y2265318D01*
X249850Y2264899D01*
X249893Y2264836D01*
X249910Y2264823D01*
X249929Y2264799D01*
X297879Y2216850D01*
X297942Y2216804D01*
X297991Y2216744D01*
X298335Y2216522D01*
X298666Y2216284D01*
X298740Y2216261D01*
X298805Y2216219D01*
X299201Y2216119D01*
X299592Y2215999D01*
X299669Y2216001D01*
X299744Y2215982D01*
X300151Y2216013D01*
X300560Y2216024D01*
X300633Y2216051D01*
X300710Y2216056D01*
X301086Y2216216D01*
X301470Y2216356D01*
X301531Y2216405D01*
X301602Y2216435D01*
X302121Y2216850D01*
X392272Y2307001D01*
X1059764Y2307001D01*
X1060219Y2307075D01*
X1060672Y2307141D01*
X1060695Y2307153D01*
X1060720Y2307157D01*
X1061125Y2307371D01*
X1061535Y2307580D01*
X1061554Y2307598D01*
X1061576Y2307610D01*
X1061892Y2307943D01*
X1062214Y2308270D01*
X1062229Y2308297D01*
X1062244Y2308312D01*
X1062276Y2308383D01*
X1062535Y2308852D01*
X1067784Y2321525D01*
X1078474Y2332215D01*
X1092441Y2338001D01*
X1107559Y2338001D01*
X1121525Y2332215D01*
X1132215Y2321525D01*
X1138001Y2307559D01*
X1138001Y2292441D01*
X1132215Y2278474D01*
X1121525Y2267784D01*
X1107559Y2261999D01*
X1092441Y2261999D01*
X1078474Y2267784D01*
X1067784Y2278474D01*
X1064192Y2287148D01*
X1063950Y2287537D01*
X1063715Y2287932D01*
X1063695Y2287949D01*
X1063681Y2287971D01*
X1063328Y2288263D01*
X1062979Y2288563D01*
X1062955Y2288572D01*
X1062935Y2288589D01*
X1062508Y2288753D01*
X1062081Y2288926D01*
X1062050Y2288929D01*
X1062031Y2288937D01*
X1061954Y2288940D01*
X1061421Y2288999D01*
X400970Y2288999D01*
X400617Y2288941D01*
X400260Y2288914D01*
X400142Y2288864D01*
X400014Y2288843D01*
X399698Y2288675D01*
X399368Y2288536D01*
X399240Y2288433D01*
X399158Y2288390D01*
X399070Y2288297D01*
X398850Y2288121D01*
X309879Y2199150D01*
X309670Y2198859D01*
X309437Y2198588D01*
X309389Y2198468D01*
X309314Y2198364D01*
X309208Y2198022D01*
X309074Y2197689D01*
X309056Y2197527D01*
X309029Y2197438D01*
X309032Y2197310D01*
X309001Y2197029D01*
X309001Y2185000D01*
X309013Y2184923D01*
X309005Y2184846D01*
X309091Y2184446D01*
X309157Y2184044D01*
X309193Y2183975D01*
X309210Y2183899D01*
X309419Y2183548D01*
X309610Y2183188D01*
X309666Y2183134D01*
X309706Y2183068D01*
X310016Y2182802D01*
X310312Y2182520D01*
X310383Y2182487D01*
X310442Y2182437D01*
X310820Y2182284D01*
X311191Y2182112D01*
X311268Y2182103D01*
X311340Y2182074D01*
X312000Y2182001D01*
X313255Y2182001D01*
X332001Y2163255D01*
X332001Y2136745D01*
X313255Y2117999D01*
X286745Y2117999D01*
G37*
%LPD*%
%LPC*%
G36*
X1092441Y1361999D02*
X1092441Y1361999D01*
X1078474Y1367784D01*
X1067784Y1378474D01*
X1061999Y1392441D01*
X1061999Y1407559D01*
X1067006Y1419646D01*
X1067111Y1420094D01*
X1067224Y1420539D01*
X1067222Y1420564D01*
X1067227Y1420589D01*
X1067184Y1421050D01*
X1067149Y1421504D01*
X1067139Y1421528D01*
X1067137Y1421554D01*
X1066949Y1421976D01*
X1066771Y1422396D01*
X1066751Y1422421D01*
X1066743Y1422439D01*
X1066692Y1422495D01*
X1066356Y1422915D01*
X999150Y1490121D01*
X998859Y1490330D01*
X998588Y1490563D01*
X998468Y1490611D01*
X998364Y1490686D01*
X998022Y1490791D01*
X997689Y1490926D01*
X997527Y1490944D01*
X997438Y1490971D01*
X997310Y1490968D01*
X997029Y1490999D01*
X267243Y1490999D01*
X266788Y1490925D01*
X266335Y1490859D01*
X266312Y1490847D01*
X266287Y1490843D01*
X265882Y1490628D01*
X265471Y1490420D01*
X265453Y1490402D01*
X265430Y1490390D01*
X265114Y1490057D01*
X264792Y1489729D01*
X264777Y1489703D01*
X264763Y1489688D01*
X264730Y1489617D01*
X264472Y1489148D01*
X260520Y1479607D01*
X250393Y1469480D01*
X237161Y1463999D01*
X162839Y1463999D01*
X149607Y1469480D01*
X139480Y1479607D01*
X133999Y1492839D01*
X133999Y1507161D01*
X139480Y1520393D01*
X149607Y1530520D01*
X162839Y1536001D01*
X237161Y1536001D01*
X250393Y1530520D01*
X260520Y1520393D01*
X264472Y1510852D01*
X264713Y1510463D01*
X264949Y1510068D01*
X264968Y1510051D01*
X264982Y1510029D01*
X265335Y1509736D01*
X265684Y1509437D01*
X265708Y1509427D01*
X265728Y1509411D01*
X266156Y1509247D01*
X266583Y1509074D01*
X266613Y1509071D01*
X266633Y1509063D01*
X266709Y1509060D01*
X267243Y1509001D01*
X1005728Y1509001D01*
X1079913Y1434815D01*
X1080285Y1434548D01*
X1080654Y1434273D01*
X1080679Y1434265D01*
X1080700Y1434250D01*
X1081137Y1434115D01*
X1081575Y1433972D01*
X1081601Y1433972D01*
X1081626Y1433965D01*
X1082085Y1433977D01*
X1082544Y1433981D01*
X1082574Y1433989D01*
X1082594Y1433990D01*
X1082666Y1434016D01*
X1083182Y1434165D01*
X1092441Y1438001D01*
X1107559Y1438001D01*
X1121525Y1432215D01*
X1132215Y1421525D01*
X1138001Y1407559D01*
X1138001Y1392441D01*
X1132215Y1378474D01*
X1121525Y1367784D01*
X1107559Y1361999D01*
X1092441Y1361999D01*
G37*
%LPD*%
%LPC*%
G36*
X1092441Y1661999D02*
X1092441Y1661999D01*
X1078474Y1667784D01*
X1067784Y1678474D01*
X1061999Y1692441D01*
X1061999Y1707559D01*
X1067006Y1719647D01*
X1067111Y1720094D01*
X1067224Y1720539D01*
X1067222Y1720564D01*
X1067227Y1720590D01*
X1067184Y1721047D01*
X1067149Y1721505D01*
X1067139Y1721528D01*
X1067137Y1721554D01*
X1066949Y1721976D01*
X1066771Y1722396D01*
X1066751Y1722421D01*
X1066743Y1722439D01*
X1066692Y1722495D01*
X1066356Y1722915D01*
X999150Y1790121D01*
X998859Y1790330D01*
X998588Y1790563D01*
X998468Y1790611D01*
X998364Y1790686D01*
X998022Y1790791D01*
X997689Y1790926D01*
X997527Y1790944D01*
X997438Y1790971D01*
X997310Y1790968D01*
X997029Y1790999D01*
X267243Y1790999D01*
X266788Y1790925D01*
X266335Y1790859D01*
X266312Y1790847D01*
X266287Y1790843D01*
X265882Y1790628D01*
X265471Y1790420D01*
X265453Y1790402D01*
X265430Y1790390D01*
X265114Y1790057D01*
X264792Y1789729D01*
X264777Y1789703D01*
X264763Y1789688D01*
X264730Y1789617D01*
X264472Y1789148D01*
X260520Y1779607D01*
X250393Y1769480D01*
X237161Y1763999D01*
X162839Y1763999D01*
X149607Y1769480D01*
X139480Y1779607D01*
X133999Y1792839D01*
X133999Y1807161D01*
X139480Y1820393D01*
X149607Y1830520D01*
X162839Y1836001D01*
X237161Y1836001D01*
X250393Y1830520D01*
X260520Y1820393D01*
X264472Y1810852D01*
X264713Y1810463D01*
X264949Y1810068D01*
X264968Y1810051D01*
X264982Y1810029D01*
X265335Y1809736D01*
X265684Y1809437D01*
X265708Y1809427D01*
X265728Y1809411D01*
X266156Y1809247D01*
X266583Y1809074D01*
X266613Y1809071D01*
X266633Y1809063D01*
X266709Y1809060D01*
X267243Y1809001D01*
X1005728Y1809001D01*
X1079913Y1734815D01*
X1080285Y1734548D01*
X1080654Y1734273D01*
X1080679Y1734265D01*
X1080700Y1734250D01*
X1081137Y1734115D01*
X1081575Y1733972D01*
X1081601Y1733972D01*
X1081626Y1733965D01*
X1082085Y1733977D01*
X1082544Y1733981D01*
X1082574Y1733989D01*
X1082594Y1733990D01*
X1082666Y1734016D01*
X1083182Y1734165D01*
X1092441Y1738001D01*
X1107559Y1738001D01*
X1121525Y1732215D01*
X1132215Y1721525D01*
X1138001Y1707559D01*
X1138001Y1692441D01*
X1132215Y1678474D01*
X1121525Y1667784D01*
X1107559Y1661999D01*
X1092441Y1661999D01*
G37*
%LPD*%
%LPC*%
G36*
X1092441Y1561999D02*
X1092441Y1561999D01*
X1078474Y1567784D01*
X1067784Y1578474D01*
X1061999Y1592441D01*
X1061999Y1607559D01*
X1066420Y1618232D01*
X1066526Y1618680D01*
X1066638Y1619125D01*
X1066636Y1619150D01*
X1066642Y1619175D01*
X1066598Y1619636D01*
X1066563Y1620090D01*
X1066553Y1620114D01*
X1066551Y1620140D01*
X1066364Y1620561D01*
X1066185Y1620982D01*
X1066166Y1621006D01*
X1066157Y1621025D01*
X1066106Y1621081D01*
X1065770Y1621501D01*
X999150Y1688121D01*
X998859Y1688330D01*
X998588Y1688563D01*
X998468Y1688611D01*
X998364Y1688686D01*
X998022Y1688791D01*
X997689Y1688926D01*
X997527Y1688944D01*
X997438Y1688971D01*
X997310Y1688968D01*
X997029Y1688999D01*
X266414Y1688999D01*
X265959Y1688925D01*
X265507Y1688859D01*
X265484Y1688847D01*
X265458Y1688843D01*
X265053Y1688628D01*
X264643Y1688420D01*
X264625Y1688402D01*
X264602Y1688390D01*
X264283Y1688055D01*
X263964Y1687729D01*
X263949Y1687703D01*
X263935Y1687688D01*
X263902Y1687617D01*
X263643Y1687148D01*
X260520Y1679607D01*
X250393Y1669480D01*
X237161Y1663999D01*
X162839Y1663999D01*
X149607Y1669480D01*
X139480Y1679607D01*
X133999Y1692839D01*
X133999Y1707161D01*
X139480Y1720393D01*
X149607Y1730520D01*
X162839Y1736001D01*
X237161Y1736001D01*
X250393Y1730520D01*
X260520Y1720393D01*
X265300Y1708852D01*
X265541Y1708463D01*
X265777Y1708068D01*
X265797Y1708051D01*
X265810Y1708029D01*
X266164Y1707736D01*
X266513Y1707437D01*
X266537Y1707427D01*
X266557Y1707411D01*
X266984Y1707247D01*
X267411Y1707074D01*
X267442Y1707071D01*
X267461Y1707063D01*
X267537Y1707060D01*
X268071Y1707001D01*
X1005728Y1707001D01*
X1078499Y1634230D01*
X1078870Y1633963D01*
X1079240Y1633687D01*
X1079265Y1633679D01*
X1079286Y1633664D01*
X1079722Y1633530D01*
X1080161Y1633386D01*
X1080187Y1633387D01*
X1080211Y1633379D01*
X1080671Y1633391D01*
X1081130Y1633395D01*
X1081159Y1633403D01*
X1081180Y1633404D01*
X1081252Y1633430D01*
X1081768Y1633579D01*
X1092441Y1638001D01*
X1107559Y1638001D01*
X1121525Y1632215D01*
X1132215Y1621525D01*
X1138001Y1607559D01*
X1138001Y1592441D01*
X1132215Y1578474D01*
X1121525Y1567784D01*
X1107559Y1561999D01*
X1092441Y1561999D01*
G37*
%LPD*%
%LPC*%
G36*
X1092441Y1461999D02*
X1092441Y1461999D01*
X1078474Y1467784D01*
X1067784Y1478474D01*
X1061999Y1492441D01*
X1061999Y1507559D01*
X1065835Y1516818D01*
X1065940Y1517266D01*
X1066052Y1517710D01*
X1066050Y1517736D01*
X1066056Y1517761D01*
X1066013Y1518221D01*
X1065978Y1518676D01*
X1065968Y1518700D01*
X1065965Y1518726D01*
X1065779Y1519145D01*
X1065599Y1519568D01*
X1065580Y1519592D01*
X1065572Y1519611D01*
X1065521Y1519666D01*
X1065185Y1520087D01*
X999150Y1586121D01*
X998859Y1586330D01*
X998588Y1586563D01*
X998468Y1586611D01*
X998364Y1586686D01*
X998022Y1586791D01*
X997689Y1586926D01*
X997527Y1586944D01*
X997438Y1586971D01*
X997310Y1586968D01*
X997029Y1586999D01*
X265586Y1586999D01*
X265131Y1586925D01*
X264678Y1586859D01*
X264655Y1586847D01*
X264630Y1586843D01*
X264225Y1586628D01*
X263814Y1586420D01*
X263796Y1586402D01*
X263773Y1586390D01*
X263458Y1586057D01*
X263135Y1585729D01*
X263121Y1585703D01*
X263106Y1585688D01*
X263073Y1585617D01*
X262815Y1585148D01*
X260520Y1579607D01*
X250393Y1569480D01*
X237161Y1563999D01*
X162839Y1563999D01*
X149607Y1569480D01*
X139480Y1579607D01*
X133999Y1592839D01*
X133999Y1607161D01*
X139480Y1620393D01*
X149607Y1630520D01*
X162839Y1636001D01*
X237161Y1636001D01*
X250393Y1630520D01*
X260520Y1620393D01*
X266128Y1606852D01*
X266370Y1606463D01*
X266606Y1606068D01*
X266625Y1606051D01*
X266639Y1606029D01*
X266993Y1605735D01*
X267341Y1605437D01*
X267365Y1605427D01*
X267385Y1605411D01*
X267812Y1605247D01*
X268239Y1605074D01*
X268270Y1605071D01*
X268289Y1605063D01*
X268366Y1605060D01*
X268899Y1605001D01*
X1005728Y1605001D01*
X1077085Y1533644D01*
X1077456Y1533377D01*
X1077826Y1533102D01*
X1077851Y1533093D01*
X1077872Y1533078D01*
X1078308Y1532944D01*
X1078747Y1532801D01*
X1078773Y1532801D01*
X1078797Y1532793D01*
X1079257Y1532805D01*
X1079716Y1532809D01*
X1079745Y1532818D01*
X1079766Y1532818D01*
X1079838Y1532844D01*
X1080353Y1532994D01*
X1092441Y1538001D01*
X1107559Y1538001D01*
X1121525Y1532215D01*
X1132215Y1521525D01*
X1138001Y1507559D01*
X1138001Y1492441D01*
X1132215Y1478474D01*
X1121525Y1467784D01*
X1107559Y1461999D01*
X1092441Y1461999D01*
G37*
%LPD*%
%LPC*%
G36*
X1092441Y1761999D02*
X1092441Y1761999D01*
X1078474Y1767784D01*
X1067784Y1778474D01*
X1061999Y1792441D01*
X1061999Y1807559D01*
X1065835Y1816818D01*
X1065940Y1817266D01*
X1066052Y1817710D01*
X1066050Y1817736D01*
X1066056Y1817761D01*
X1066013Y1818221D01*
X1065978Y1818676D01*
X1065968Y1818700D01*
X1065965Y1818726D01*
X1065779Y1819145D01*
X1065599Y1819568D01*
X1065580Y1819592D01*
X1065572Y1819611D01*
X1065521Y1819666D01*
X1065185Y1820087D01*
X999150Y1886121D01*
X998859Y1886330D01*
X998588Y1886563D01*
X998468Y1886611D01*
X998364Y1886686D01*
X998022Y1886791D01*
X997689Y1886926D01*
X997527Y1886944D01*
X997438Y1886971D01*
X997310Y1886968D01*
X997029Y1886999D01*
X265586Y1886999D01*
X265131Y1886925D01*
X264678Y1886859D01*
X264655Y1886847D01*
X264630Y1886843D01*
X264225Y1886628D01*
X263814Y1886420D01*
X263796Y1886402D01*
X263773Y1886390D01*
X263458Y1886057D01*
X263135Y1885729D01*
X263121Y1885703D01*
X263106Y1885688D01*
X263073Y1885617D01*
X262815Y1885148D01*
X260520Y1879607D01*
X250393Y1869480D01*
X237161Y1863999D01*
X162839Y1863999D01*
X149607Y1869480D01*
X139480Y1879607D01*
X133999Y1892839D01*
X133999Y1907161D01*
X139480Y1920393D01*
X149607Y1930520D01*
X162839Y1936001D01*
X237161Y1936001D01*
X250393Y1930520D01*
X260520Y1920393D01*
X266128Y1906852D01*
X266370Y1906463D01*
X266606Y1906068D01*
X266625Y1906051D01*
X266639Y1906029D01*
X266993Y1905735D01*
X267341Y1905437D01*
X267365Y1905427D01*
X267385Y1905411D01*
X267812Y1905247D01*
X268239Y1905074D01*
X268270Y1905071D01*
X268289Y1905063D01*
X268366Y1905060D01*
X268899Y1905001D01*
X1005728Y1905001D01*
X1077085Y1833644D01*
X1077456Y1833377D01*
X1077826Y1833102D01*
X1077851Y1833093D01*
X1077871Y1833078D01*
X1078307Y1832944D01*
X1078747Y1832801D01*
X1078773Y1832801D01*
X1078797Y1832793D01*
X1079256Y1832805D01*
X1079715Y1832809D01*
X1079745Y1832818D01*
X1079766Y1832818D01*
X1079837Y1832844D01*
X1080353Y1832994D01*
X1092441Y1838001D01*
X1107559Y1838001D01*
X1121525Y1832215D01*
X1132215Y1821525D01*
X1138001Y1807559D01*
X1138001Y1792441D01*
X1132215Y1778474D01*
X1121525Y1767784D01*
X1107559Y1761999D01*
X1092441Y1761999D01*
G37*
%LPD*%
%LPC*%
G36*
X1092441Y2561999D02*
X1092441Y2561999D01*
X1078474Y2567784D01*
X1067784Y2578474D01*
X1064192Y2587148D01*
X1063950Y2587537D01*
X1063715Y2587932D01*
X1063695Y2587949D01*
X1063681Y2587971D01*
X1063328Y2588263D01*
X1062979Y2588563D01*
X1062955Y2588572D01*
X1062935Y2588589D01*
X1062508Y2588753D01*
X1062081Y2588926D01*
X1062050Y2588929D01*
X1062031Y2588937D01*
X1061954Y2588940D01*
X1061421Y2588999D01*
X266414Y2588999D01*
X265959Y2588925D01*
X265507Y2588859D01*
X265484Y2588847D01*
X265458Y2588843D01*
X265053Y2588628D01*
X264643Y2588420D01*
X264625Y2588402D01*
X264602Y2588390D01*
X264286Y2588057D01*
X263964Y2587729D01*
X263949Y2587703D01*
X263935Y2587688D01*
X263902Y2587617D01*
X263643Y2587148D01*
X260520Y2579607D01*
X250393Y2569480D01*
X237161Y2563999D01*
X162839Y2563999D01*
X149607Y2569480D01*
X139480Y2579607D01*
X133999Y2592839D01*
X133999Y2607161D01*
X139480Y2620393D01*
X149607Y2630520D01*
X162839Y2636001D01*
X237161Y2636001D01*
X250393Y2630520D01*
X260520Y2620393D01*
X265300Y2608852D01*
X265541Y2608463D01*
X265777Y2608068D01*
X265797Y2608051D01*
X265810Y2608029D01*
X266164Y2607736D01*
X266513Y2607437D01*
X266537Y2607427D01*
X266557Y2607411D01*
X266984Y2607247D01*
X267411Y2607074D01*
X267442Y2607071D01*
X267461Y2607063D01*
X267537Y2607060D01*
X268071Y2607001D01*
X1059764Y2607001D01*
X1060219Y2607075D01*
X1060672Y2607141D01*
X1060695Y2607153D01*
X1060720Y2607157D01*
X1061125Y2607371D01*
X1061535Y2607580D01*
X1061554Y2607598D01*
X1061576Y2607610D01*
X1061892Y2607943D01*
X1062214Y2608270D01*
X1062229Y2608297D01*
X1062244Y2608312D01*
X1062276Y2608383D01*
X1062535Y2608852D01*
X1067784Y2621525D01*
X1078474Y2632215D01*
X1092441Y2638001D01*
X1107559Y2638001D01*
X1121525Y2632215D01*
X1132215Y2621525D01*
X1138001Y2607559D01*
X1138001Y2592441D01*
X1132215Y2578474D01*
X1121525Y2567784D01*
X1107559Y2561999D01*
X1092441Y2561999D01*
G37*
%LPD*%
%LPC*%
G36*
X1092441Y2461999D02*
X1092441Y2461999D01*
X1078474Y2467784D01*
X1067784Y2478474D01*
X1062535Y2491148D01*
X1062294Y2491537D01*
X1062058Y2491932D01*
X1062038Y2491949D01*
X1062025Y2491971D01*
X1061672Y2492263D01*
X1061322Y2492563D01*
X1061298Y2492572D01*
X1061278Y2492589D01*
X1060851Y2492753D01*
X1060424Y2492926D01*
X1060393Y2492929D01*
X1060374Y2492937D01*
X1060298Y2492940D01*
X1059764Y2492999D01*
X268071Y2492999D01*
X267616Y2492925D01*
X267164Y2492859D01*
X267141Y2492847D01*
X267115Y2492843D01*
X266710Y2492628D01*
X266300Y2492420D01*
X266281Y2492402D01*
X266259Y2492390D01*
X265943Y2492057D01*
X265621Y2491729D01*
X265606Y2491703D01*
X265591Y2491688D01*
X265559Y2491617D01*
X265300Y2491148D01*
X260520Y2479607D01*
X250393Y2469480D01*
X237161Y2463999D01*
X162839Y2463999D01*
X149607Y2469480D01*
X139480Y2479607D01*
X133999Y2492839D01*
X133999Y2507161D01*
X139480Y2520393D01*
X149607Y2530520D01*
X162839Y2536001D01*
X237161Y2536001D01*
X250393Y2530520D01*
X260520Y2520393D01*
X263643Y2512852D01*
X263885Y2512463D01*
X264120Y2512068D01*
X264140Y2512051D01*
X264154Y2512029D01*
X264507Y2511736D01*
X264856Y2511437D01*
X264880Y2511427D01*
X264900Y2511411D01*
X265327Y2511247D01*
X265754Y2511074D01*
X265785Y2511071D01*
X265804Y2511063D01*
X265881Y2511060D01*
X266414Y2511001D01*
X1061421Y2511001D01*
X1061876Y2511075D01*
X1062328Y2511141D01*
X1062351Y2511153D01*
X1062377Y2511157D01*
X1062782Y2511371D01*
X1063192Y2511580D01*
X1063211Y2511598D01*
X1063233Y2511610D01*
X1063549Y2511943D01*
X1063871Y2512270D01*
X1063886Y2512297D01*
X1063900Y2512312D01*
X1063933Y2512383D01*
X1064192Y2512852D01*
X1067784Y2521525D01*
X1078474Y2532215D01*
X1092441Y2538001D01*
X1107559Y2538001D01*
X1121525Y2532215D01*
X1132215Y2521525D01*
X1138001Y2507559D01*
X1138001Y2492441D01*
X1132215Y2478474D01*
X1121525Y2467784D01*
X1107559Y2461999D01*
X1092441Y2461999D01*
G37*
%LPD*%
%LPC*%
G36*
X1092441Y2661999D02*
X1092441Y2661999D01*
X1078474Y2667784D01*
X1067784Y2678474D01*
X1063363Y2689148D01*
X1063122Y2689537D01*
X1062886Y2689932D01*
X1062867Y2689949D01*
X1062853Y2689971D01*
X1062500Y2690263D01*
X1062151Y2690563D01*
X1062127Y2690572D01*
X1062107Y2690589D01*
X1061680Y2690753D01*
X1061253Y2690926D01*
X1061222Y2690929D01*
X1061203Y2690937D01*
X1061126Y2690940D01*
X1060593Y2690999D01*
X267243Y2690999D01*
X266788Y2690925D01*
X266335Y2690859D01*
X266312Y2690847D01*
X266287Y2690843D01*
X265882Y2690628D01*
X265471Y2690420D01*
X265453Y2690402D01*
X265430Y2690390D01*
X265114Y2690057D01*
X264792Y2689729D01*
X264777Y2689703D01*
X264763Y2689688D01*
X264730Y2689617D01*
X264472Y2689148D01*
X260520Y2679607D01*
X250393Y2669480D01*
X237161Y2663999D01*
X162839Y2663999D01*
X149607Y2669480D01*
X139480Y2679607D01*
X133999Y2692839D01*
X133999Y2707161D01*
X139480Y2720393D01*
X149607Y2730520D01*
X162839Y2736001D01*
X237161Y2736001D01*
X250393Y2730520D01*
X260520Y2720393D01*
X264472Y2710852D01*
X264713Y2710463D01*
X264949Y2710068D01*
X264968Y2710051D01*
X264982Y2710029D01*
X265335Y2709736D01*
X265684Y2709437D01*
X265708Y2709427D01*
X265728Y2709411D01*
X266156Y2709247D01*
X266583Y2709074D01*
X266613Y2709071D01*
X266633Y2709063D01*
X266709Y2709060D01*
X267243Y2709001D01*
X1060593Y2709001D01*
X1061047Y2709075D01*
X1061500Y2709141D01*
X1061523Y2709153D01*
X1061549Y2709157D01*
X1061954Y2709371D01*
X1062364Y2709580D01*
X1062382Y2709598D01*
X1062405Y2709610D01*
X1062721Y2709943D01*
X1063043Y2710270D01*
X1063058Y2710297D01*
X1063072Y2710312D01*
X1063105Y2710383D01*
X1063363Y2710852D01*
X1067784Y2721525D01*
X1078474Y2732215D01*
X1092441Y2738001D01*
X1107559Y2738001D01*
X1121525Y2732215D01*
X1132215Y2721525D01*
X1138001Y2707559D01*
X1138001Y2692441D01*
X1132215Y2678474D01*
X1121525Y2667784D01*
X1107559Y2661999D01*
X1092441Y2661999D01*
G37*
%LPD*%
%LPC*%
G36*
X1092441Y2361999D02*
X1092441Y2361999D01*
X1078474Y2367784D01*
X1067784Y2378474D01*
X1063363Y2389148D01*
X1063122Y2389537D01*
X1062886Y2389932D01*
X1062867Y2389949D01*
X1062853Y2389971D01*
X1062500Y2390263D01*
X1062151Y2390563D01*
X1062127Y2390572D01*
X1062107Y2390589D01*
X1061680Y2390753D01*
X1061253Y2390926D01*
X1061222Y2390929D01*
X1061203Y2390937D01*
X1061126Y2390940D01*
X1060593Y2390999D01*
X267243Y2390999D01*
X266788Y2390925D01*
X266335Y2390859D01*
X266312Y2390847D01*
X266287Y2390843D01*
X265882Y2390628D01*
X265471Y2390420D01*
X265453Y2390402D01*
X265430Y2390390D01*
X265114Y2390057D01*
X264792Y2389729D01*
X264777Y2389703D01*
X264763Y2389688D01*
X264730Y2389617D01*
X264472Y2389148D01*
X260520Y2379607D01*
X250393Y2369480D01*
X237161Y2363999D01*
X162839Y2363999D01*
X149607Y2369480D01*
X139480Y2379607D01*
X133999Y2392839D01*
X133999Y2407161D01*
X139480Y2420393D01*
X149607Y2430520D01*
X162839Y2436001D01*
X237161Y2436001D01*
X250393Y2430520D01*
X260520Y2420393D01*
X264472Y2410852D01*
X264713Y2410463D01*
X264949Y2410068D01*
X264968Y2410051D01*
X264982Y2410029D01*
X265335Y2409736D01*
X265684Y2409437D01*
X265708Y2409427D01*
X265728Y2409411D01*
X266156Y2409247D01*
X266583Y2409074D01*
X266613Y2409071D01*
X266633Y2409063D01*
X266709Y2409060D01*
X267243Y2409001D01*
X1060593Y2409001D01*
X1061047Y2409075D01*
X1061500Y2409141D01*
X1061523Y2409153D01*
X1061549Y2409157D01*
X1061954Y2409371D01*
X1062364Y2409580D01*
X1062382Y2409598D01*
X1062405Y2409610D01*
X1062721Y2409943D01*
X1063043Y2410270D01*
X1063058Y2410297D01*
X1063072Y2410312D01*
X1063105Y2410383D01*
X1063363Y2410852D01*
X1067784Y2421525D01*
X1078474Y2432215D01*
X1092441Y2438001D01*
X1107559Y2438001D01*
X1121525Y2432215D01*
X1132215Y2421525D01*
X1138001Y2407559D01*
X1138001Y2392441D01*
X1132215Y2378474D01*
X1121525Y2367784D01*
X1107559Y2361999D01*
X1092441Y2361999D01*
G37*
%LPD*%
%LPC*%
G36*
X1092441Y1961999D02*
X1092441Y1961999D01*
X1078474Y1967784D01*
X1067784Y1978474D01*
X1061880Y1992729D01*
X1061843Y1992956D01*
X1061807Y1993024D01*
X1061790Y1993100D01*
X1061581Y1993452D01*
X1061390Y1993812D01*
X1061334Y1993866D01*
X1061294Y1993932D01*
X1060984Y1994198D01*
X1060688Y1994480D01*
X1060617Y1994512D01*
X1060558Y1994563D01*
X1060180Y1994716D01*
X1059809Y1994888D01*
X1059732Y1994897D01*
X1059660Y1994926D01*
X1059000Y1994999D01*
X992272Y1994999D01*
X873334Y2113937D01*
X873271Y2113982D01*
X873222Y2114043D01*
X872878Y2114264D01*
X872547Y2114502D01*
X872473Y2114525D01*
X872408Y2114567D01*
X872012Y2114667D01*
X871621Y2114788D01*
X871544Y2114786D01*
X871469Y2114805D01*
X871062Y2114773D01*
X870653Y2114763D01*
X870580Y2114736D01*
X870503Y2114730D01*
X870127Y2114571D01*
X869743Y2114431D01*
X869682Y2114382D01*
X869611Y2114352D01*
X869092Y2113937D01*
X866155Y2110999D01*
X833845Y2110999D01*
X810999Y2133845D01*
X810999Y2166155D01*
X833845Y2189001D01*
X866155Y2189001D01*
X889001Y2166155D01*
X889001Y2133845D01*
X886063Y2130908D01*
X886017Y2130845D01*
X885957Y2130796D01*
X885735Y2130452D01*
X885497Y2130121D01*
X885475Y2130047D01*
X885433Y2129982D01*
X885333Y2129586D01*
X885212Y2129195D01*
X885214Y2129117D01*
X885195Y2129042D01*
X885227Y2128636D01*
X885237Y2128227D01*
X885264Y2128154D01*
X885270Y2128077D01*
X885429Y2127701D01*
X885569Y2127317D01*
X885618Y2127256D01*
X885648Y2127185D01*
X886063Y2126666D01*
X998850Y2013879D01*
X999141Y2013670D01*
X999412Y2013437D01*
X999532Y2013389D01*
X999636Y2013314D01*
X999978Y2013208D01*
X1000310Y2013074D01*
X1000473Y2013056D01*
X1000562Y2013029D01*
X1000690Y2013032D01*
X1000970Y2013001D01*
X1062249Y2013001D01*
X1062704Y2013075D01*
X1063157Y2013141D01*
X1063180Y2013153D01*
X1063205Y2013157D01*
X1063610Y2013371D01*
X1064021Y2013580D01*
X1064039Y2013598D01*
X1064062Y2013610D01*
X1064378Y2013943D01*
X1064700Y2014270D01*
X1064715Y2014297D01*
X1064729Y2014312D01*
X1064762Y2014383D01*
X1065020Y2014852D01*
X1067784Y2021525D01*
X1078474Y2032215D01*
X1092441Y2038001D01*
X1107559Y2038001D01*
X1118232Y2033579D01*
X1118680Y2033474D01*
X1119125Y2033362D01*
X1119150Y2033364D01*
X1119175Y2033358D01*
X1119636Y2033401D01*
X1120090Y2033437D01*
X1120114Y2033446D01*
X1120140Y2033449D01*
X1120561Y2033636D01*
X1120982Y2033815D01*
X1121006Y2033834D01*
X1121025Y2033843D01*
X1121081Y2033894D01*
X1121501Y2034230D01*
X1196272Y2109001D01*
X1360593Y2109001D01*
X1361047Y2109075D01*
X1361500Y2109141D01*
X1361523Y2109153D01*
X1361549Y2109157D01*
X1361954Y2109371D01*
X1362364Y2109580D01*
X1362382Y2109598D01*
X1362405Y2109610D01*
X1362721Y2109943D01*
X1363043Y2110270D01*
X1363058Y2110297D01*
X1363072Y2110312D01*
X1363105Y2110383D01*
X1363363Y2110852D01*
X1367784Y2121525D01*
X1378474Y2132215D01*
X1392441Y2138001D01*
X1407559Y2138001D01*
X1421525Y2132215D01*
X1432215Y2121525D01*
X1438001Y2107559D01*
X1438001Y2092441D01*
X1432215Y2078474D01*
X1421525Y2067784D01*
X1407559Y2061999D01*
X1392441Y2061999D01*
X1378474Y2067784D01*
X1367784Y2078474D01*
X1363363Y2089148D01*
X1363122Y2089537D01*
X1362886Y2089932D01*
X1362867Y2089949D01*
X1362853Y2089971D01*
X1362500Y2090263D01*
X1362151Y2090563D01*
X1362127Y2090572D01*
X1362107Y2090589D01*
X1361680Y2090753D01*
X1361253Y2090926D01*
X1361222Y2090929D01*
X1361203Y2090937D01*
X1361126Y2090940D01*
X1360593Y2090999D01*
X1204970Y2090999D01*
X1204617Y2090941D01*
X1204260Y2090914D01*
X1204142Y2090864D01*
X1204014Y2090843D01*
X1203698Y2090675D01*
X1203368Y2090536D01*
X1203240Y2090433D01*
X1203158Y2090390D01*
X1203070Y2090297D01*
X1202850Y2090121D01*
X1134230Y2021501D01*
X1133963Y2021130D01*
X1133687Y2020760D01*
X1133679Y2020735D01*
X1133664Y2020714D01*
X1133530Y2020278D01*
X1133386Y2019839D01*
X1133387Y2019813D01*
X1133379Y2019788D01*
X1133391Y2019329D01*
X1133395Y2018870D01*
X1133403Y2018841D01*
X1133404Y2018820D01*
X1133430Y2018748D01*
X1133579Y2018232D01*
X1138001Y2007559D01*
X1138001Y1992441D01*
X1132215Y1978474D01*
X1121525Y1967784D01*
X1107559Y1961999D01*
X1092441Y1961999D01*
G37*
%LPD*%
%LPC*%
G36*
X1642342Y2261499D02*
X1642342Y2261499D01*
X1628191Y2267361D01*
X1617361Y2278191D01*
X1611407Y2292565D01*
X1611343Y2292956D01*
X1611307Y2293024D01*
X1611290Y2293100D01*
X1611081Y2293452D01*
X1610890Y2293812D01*
X1610834Y2293866D01*
X1610794Y2293932D01*
X1610484Y2294198D01*
X1610188Y2294480D01*
X1610117Y2294512D01*
X1610058Y2294563D01*
X1609680Y2294716D01*
X1609309Y2294888D01*
X1609232Y2294897D01*
X1609160Y2294926D01*
X1608500Y2294999D01*
X1441000Y2294999D01*
X1440923Y2294987D01*
X1440846Y2294995D01*
X1440446Y2294909D01*
X1440044Y2294843D01*
X1439975Y2294807D01*
X1439899Y2294790D01*
X1439548Y2294581D01*
X1439188Y2294390D01*
X1439134Y2294334D01*
X1439068Y2294294D01*
X1438802Y2293984D01*
X1438520Y2293688D01*
X1438487Y2293617D01*
X1438437Y2293558D01*
X1438284Y2293180D01*
X1438112Y2292809D01*
X1438103Y2292732D01*
X1438074Y2292660D01*
X1438068Y2292603D01*
X1432215Y2278474D01*
X1421525Y2267784D01*
X1407559Y2261999D01*
X1392441Y2261999D01*
X1378474Y2267784D01*
X1367784Y2278474D01*
X1361999Y2292441D01*
X1361999Y2307559D01*
X1367784Y2321525D01*
X1378474Y2332215D01*
X1392441Y2338001D01*
X1407559Y2338001D01*
X1421525Y2332215D01*
X1432215Y2321525D01*
X1434980Y2314852D01*
X1435221Y2314463D01*
X1435457Y2314068D01*
X1435476Y2314051D01*
X1435490Y2314029D01*
X1435843Y2313736D01*
X1436192Y2313437D01*
X1436216Y2313427D01*
X1436236Y2313411D01*
X1436663Y2313247D01*
X1437090Y2313074D01*
X1437121Y2313071D01*
X1437140Y2313063D01*
X1437217Y2313060D01*
X1437750Y2313001D01*
X1611708Y2313001D01*
X1612163Y2313075D01*
X1612616Y2313141D01*
X1612639Y2313153D01*
X1612664Y2313157D01*
X1613069Y2313371D01*
X1613480Y2313580D01*
X1613498Y2313598D01*
X1613520Y2313610D01*
X1613836Y2313943D01*
X1614159Y2314270D01*
X1614173Y2314297D01*
X1614188Y2314312D01*
X1614220Y2314383D01*
X1614479Y2314852D01*
X1617361Y2321809D01*
X1628191Y2332639D01*
X1642342Y2338501D01*
X1657658Y2338501D01*
X1665787Y2335134D01*
X1666234Y2335029D01*
X1666679Y2334916D01*
X1666704Y2334918D01*
X1666730Y2334912D01*
X1667190Y2334956D01*
X1667645Y2334991D01*
X1667668Y2335001D01*
X1667694Y2335003D01*
X1668114Y2335190D01*
X1668536Y2335369D01*
X1668561Y2335388D01*
X1668579Y2335397D01*
X1668635Y2335448D01*
X1669055Y2335784D01*
X1688272Y2355001D01*
X1865000Y2355001D01*
X1865077Y2355013D01*
X1865154Y2355005D01*
X1865553Y2355091D01*
X1865956Y2355157D01*
X1866024Y2355193D01*
X1866100Y2355210D01*
X1866452Y2355419D01*
X1866812Y2355610D01*
X1866866Y2355666D01*
X1866932Y2355706D01*
X1867198Y2356016D01*
X1867480Y2356312D01*
X1867512Y2356383D01*
X1867563Y2356442D01*
X1867716Y2356820D01*
X1867888Y2357191D01*
X1867897Y2357268D01*
X1867926Y2357340D01*
X1867999Y2358000D01*
X1867999Y2363255D01*
X1886745Y2382001D01*
X1913255Y2382001D01*
X1932001Y2363255D01*
X1932001Y2336745D01*
X1913255Y2317999D01*
X1886745Y2317999D01*
X1868623Y2336121D01*
X1868332Y2336330D01*
X1868061Y2336563D01*
X1867941Y2336611D01*
X1867837Y2336686D01*
X1867495Y2336791D01*
X1867163Y2336926D01*
X1867000Y2336944D01*
X1866911Y2336971D01*
X1866783Y2336968D01*
X1866502Y2336999D01*
X1696970Y2336999D01*
X1696617Y2336941D01*
X1696260Y2336914D01*
X1696142Y2336864D01*
X1696014Y2336843D01*
X1695698Y2336675D01*
X1695368Y2336536D01*
X1695240Y2336433D01*
X1695158Y2336390D01*
X1695070Y2336297D01*
X1694850Y2336121D01*
X1683441Y2324712D01*
X1683256Y2324455D01*
X1683084Y2324274D01*
X1683017Y2324130D01*
X1682898Y2323971D01*
X1682890Y2323946D01*
X1682875Y2323925D01*
X1682784Y2323630D01*
X1682675Y2323396D01*
X1682657Y2323233D01*
X1682598Y2323050D01*
X1682598Y2323024D01*
X1682590Y2323000D01*
X1682598Y2322700D01*
X1682568Y2322433D01*
X1682604Y2322266D01*
X1682606Y2322081D01*
X1682615Y2322052D01*
X1682615Y2322031D01*
X1682641Y2321959D01*
X1682759Y2321553D01*
X1682773Y2321486D01*
X1682783Y2321470D01*
X1682791Y2321443D01*
X1688501Y2307658D01*
X1688501Y2292342D01*
X1682639Y2278191D01*
X1671809Y2267361D01*
X1657658Y2261499D01*
X1642342Y2261499D01*
G37*
%LPD*%
%LPC*%
G36*
X1642342Y2061499D02*
X1642342Y2061499D01*
X1628191Y2067361D01*
X1617361Y2078191D01*
X1611499Y2092342D01*
X1611499Y2107658D01*
X1616038Y2118615D01*
X1616143Y2119063D01*
X1616255Y2119507D01*
X1616253Y2119533D01*
X1616259Y2119558D01*
X1616216Y2120018D01*
X1616181Y2120473D01*
X1616171Y2120496D01*
X1616168Y2120523D01*
X1615981Y2120943D01*
X1615802Y2121365D01*
X1615783Y2121389D01*
X1615775Y2121408D01*
X1615724Y2121463D01*
X1615388Y2121883D01*
X1551150Y2186121D01*
X1550859Y2186330D01*
X1550588Y2186563D01*
X1550468Y2186611D01*
X1550364Y2186686D01*
X1550022Y2186791D01*
X1549689Y2186926D01*
X1549527Y2186944D01*
X1549438Y2186971D01*
X1549310Y2186968D01*
X1549029Y2186999D01*
X1437750Y2186999D01*
X1437296Y2186925D01*
X1436843Y2186859D01*
X1436820Y2186847D01*
X1436794Y2186843D01*
X1436389Y2186628D01*
X1435979Y2186420D01*
X1435961Y2186402D01*
X1435938Y2186390D01*
X1435622Y2186057D01*
X1435300Y2185729D01*
X1435285Y2185703D01*
X1435271Y2185688D01*
X1435238Y2185617D01*
X1434980Y2185148D01*
X1432215Y2178474D01*
X1421525Y2167784D01*
X1407559Y2161999D01*
X1392441Y2161999D01*
X1378474Y2167784D01*
X1367784Y2178474D01*
X1361999Y2192441D01*
X1361999Y2207559D01*
X1367784Y2221525D01*
X1378474Y2232215D01*
X1392441Y2238001D01*
X1407559Y2238001D01*
X1421525Y2232215D01*
X1432215Y2221525D01*
X1438120Y2207271D01*
X1438157Y2207044D01*
X1438193Y2206975D01*
X1438210Y2206899D01*
X1438419Y2206548D01*
X1438610Y2206188D01*
X1438666Y2206134D01*
X1438706Y2206068D01*
X1439016Y2205802D01*
X1439312Y2205520D01*
X1439383Y2205487D01*
X1439442Y2205437D01*
X1439820Y2205284D01*
X1440191Y2205112D01*
X1440268Y2205103D01*
X1440340Y2205074D01*
X1441000Y2205001D01*
X1557728Y2205001D01*
X1628116Y2134612D01*
X1628488Y2134345D01*
X1628858Y2134070D01*
X1628882Y2134062D01*
X1628903Y2134047D01*
X1629340Y2133912D01*
X1629778Y2133769D01*
X1629804Y2133769D01*
X1629829Y2133762D01*
X1630288Y2133773D01*
X1630747Y2133777D01*
X1630777Y2133786D01*
X1630797Y2133787D01*
X1630869Y2133813D01*
X1631385Y2133962D01*
X1642342Y2138501D01*
X1657658Y2138501D01*
X1671809Y2132639D01*
X1682639Y2121809D01*
X1688501Y2107658D01*
X1688501Y2092342D01*
X1682639Y2078191D01*
X1671809Y2067361D01*
X1657658Y2061499D01*
X1642342Y2061499D01*
G37*
%LPD*%
%LPC*%
G36*
X733845Y2110999D02*
X733845Y2110999D01*
X710999Y2133845D01*
X710999Y2142000D01*
X710987Y2142077D01*
X710995Y2142154D01*
X710909Y2142553D01*
X710843Y2142956D01*
X710807Y2143024D01*
X710790Y2143100D01*
X710581Y2143452D01*
X710390Y2143812D01*
X710334Y2143866D01*
X710294Y2143932D01*
X709984Y2144198D01*
X709688Y2144480D01*
X709617Y2144512D01*
X709558Y2144563D01*
X709180Y2144716D01*
X708809Y2144888D01*
X708732Y2144897D01*
X708660Y2144926D01*
X708000Y2144999D01*
X635000Y2144999D01*
X634923Y2144987D01*
X634846Y2144995D01*
X634446Y2144909D01*
X634044Y2144843D01*
X633975Y2144807D01*
X633899Y2144790D01*
X633548Y2144581D01*
X633188Y2144390D01*
X633134Y2144334D01*
X633068Y2144294D01*
X632802Y2143984D01*
X632520Y2143688D01*
X632487Y2143617D01*
X632437Y2143558D01*
X632284Y2143180D01*
X632112Y2142809D01*
X632103Y2142732D01*
X632074Y2142660D01*
X632001Y2142000D01*
X632001Y2136745D01*
X613255Y2117999D01*
X586745Y2117999D01*
X567999Y2136745D01*
X567999Y2163255D01*
X586745Y2182001D01*
X613255Y2182001D01*
X631377Y2163879D01*
X631667Y2163670D01*
X631939Y2163437D01*
X632059Y2163389D01*
X632163Y2163314D01*
X632505Y2163208D01*
X632837Y2163074D01*
X633000Y2163056D01*
X633089Y2163029D01*
X633217Y2163032D01*
X633497Y2163001D01*
X708000Y2163001D01*
X708077Y2163013D01*
X708154Y2163005D01*
X708553Y2163091D01*
X708956Y2163157D01*
X709024Y2163193D01*
X709100Y2163210D01*
X709452Y2163419D01*
X709812Y2163610D01*
X709866Y2163666D01*
X709932Y2163706D01*
X710198Y2164016D01*
X710480Y2164312D01*
X710512Y2164383D01*
X710563Y2164442D01*
X710716Y2164820D01*
X710888Y2165191D01*
X710897Y2165268D01*
X710926Y2165340D01*
X710999Y2166000D01*
X710999Y2166155D01*
X733845Y2189001D01*
X766155Y2189001D01*
X789001Y2166155D01*
X789001Y2133845D01*
X766155Y2110999D01*
X733845Y2110999D01*
G37*
%LPD*%
%LPC*%
G36*
X1092441Y2061999D02*
X1092441Y2061999D01*
X1078474Y2067784D01*
X1067784Y2078474D01*
X1061999Y2092441D01*
X1061999Y2107559D01*
X1067784Y2121525D01*
X1078474Y2132215D01*
X1092729Y2138120D01*
X1092956Y2138157D01*
X1093024Y2138193D01*
X1093100Y2138210D01*
X1093452Y2138419D01*
X1093812Y2138610D01*
X1093866Y2138666D01*
X1093932Y2138706D01*
X1094198Y2139016D01*
X1094480Y2139312D01*
X1094512Y2139383D01*
X1094563Y2139442D01*
X1094716Y2139820D01*
X1094888Y2140191D01*
X1094897Y2140268D01*
X1094926Y2140340D01*
X1094999Y2141000D01*
X1094999Y2159000D01*
X1094987Y2159077D01*
X1094995Y2159154D01*
X1094909Y2159553D01*
X1094843Y2159956D01*
X1094807Y2160024D01*
X1094790Y2160100D01*
X1094581Y2160452D01*
X1094390Y2160812D01*
X1094334Y2160866D01*
X1094294Y2160932D01*
X1093984Y2161198D01*
X1093688Y2161480D01*
X1093617Y2161512D01*
X1093558Y2161563D01*
X1093180Y2161716D01*
X1092809Y2161888D01*
X1092732Y2161897D01*
X1092660Y2161926D01*
X1092603Y2161932D01*
X1078474Y2167784D01*
X1067784Y2178474D01*
X1061999Y2192441D01*
X1061999Y2207559D01*
X1067784Y2221525D01*
X1078474Y2232215D01*
X1092441Y2238001D01*
X1107559Y2238001D01*
X1121525Y2232215D01*
X1132215Y2221525D01*
X1138001Y2207559D01*
X1138001Y2192441D01*
X1132215Y2178474D01*
X1121525Y2167784D01*
X1114852Y2165020D01*
X1114463Y2164779D01*
X1114068Y2164543D01*
X1114051Y2164524D01*
X1114029Y2164510D01*
X1113736Y2164157D01*
X1113437Y2163808D01*
X1113427Y2163784D01*
X1113411Y2163764D01*
X1113247Y2163336D01*
X1113074Y2162909D01*
X1113071Y2162879D01*
X1113063Y2162859D01*
X1113060Y2162783D01*
X1113001Y2162249D01*
X1113001Y2137750D01*
X1113075Y2137294D01*
X1113141Y2136843D01*
X1113153Y2136820D01*
X1113157Y2136794D01*
X1113371Y2136389D01*
X1113580Y2135979D01*
X1113598Y2135961D01*
X1113610Y2135938D01*
X1113943Y2135622D01*
X1114270Y2135300D01*
X1114297Y2135285D01*
X1114312Y2135271D01*
X1114383Y2135238D01*
X1114852Y2134980D01*
X1121525Y2132215D01*
X1132215Y2121525D01*
X1138001Y2107559D01*
X1138001Y2092441D01*
X1132215Y2078474D01*
X1121525Y2067784D01*
X1107559Y2061999D01*
X1092441Y2061999D01*
G37*
%LPD*%
%LPC*%
G36*
X162839Y1963999D02*
X162839Y1963999D01*
X149607Y1969480D01*
X139480Y1979607D01*
X133999Y1992839D01*
X133999Y2007161D01*
X139480Y2020393D01*
X149607Y2030520D01*
X162839Y2036001D01*
X237161Y2036001D01*
X250393Y2030520D01*
X260520Y2020393D01*
X266001Y2007161D01*
X266001Y1992839D01*
X260520Y1979607D01*
X250393Y1969480D01*
X237161Y1963999D01*
X162839Y1963999D01*
G37*
%LPD*%
%LPC*%
G36*
X1142839Y683999D02*
X1142839Y683999D01*
X1129607Y689480D01*
X1119480Y699607D01*
X1113999Y712839D01*
X1113999Y787161D01*
X1119480Y800393D01*
X1129607Y810520D01*
X1142839Y816001D01*
X1157161Y816001D01*
X1170393Y810520D01*
X1180520Y800393D01*
X1186001Y787161D01*
X1186001Y712839D01*
X1180520Y699607D01*
X1170393Y689480D01*
X1157161Y683999D01*
X1142839Y683999D01*
G37*
%LPD*%
%LPC*%
G36*
X880446Y1284999D02*
X880446Y1284999D01*
X864642Y1291546D01*
X852546Y1303642D01*
X845999Y1319446D01*
X845999Y1336554D01*
X852546Y1352358D01*
X864642Y1364454D01*
X880446Y1371001D01*
X897554Y1371001D01*
X913358Y1364454D01*
X925454Y1352358D01*
X932001Y1336554D01*
X932001Y1319446D01*
X925454Y1303642D01*
X913358Y1291546D01*
X897554Y1284999D01*
X880446Y1284999D01*
G37*
%LPD*%
%LPC*%
G36*
X702446Y1284999D02*
X702446Y1284999D01*
X686642Y1291546D01*
X674546Y1303642D01*
X667999Y1319446D01*
X667999Y1336554D01*
X674546Y1352358D01*
X686642Y1364454D01*
X702446Y1371001D01*
X719554Y1371001D01*
X735358Y1364454D01*
X747454Y1352358D01*
X754001Y1336554D01*
X754001Y1319446D01*
X747454Y1303642D01*
X735358Y1291546D01*
X719554Y1284999D01*
X702446Y1284999D01*
G37*
%LPD*%
%LPC*%
G36*
X1092441Y1861999D02*
X1092441Y1861999D01*
X1078474Y1867784D01*
X1067784Y1878474D01*
X1061999Y1892441D01*
X1061999Y1907559D01*
X1067784Y1921525D01*
X1078474Y1932215D01*
X1092441Y1938001D01*
X1107559Y1938001D01*
X1121525Y1932215D01*
X1132215Y1921525D01*
X1138001Y1907559D01*
X1138001Y1892441D01*
X1132215Y1878474D01*
X1121525Y1867784D01*
X1107559Y1861999D01*
X1092441Y1861999D01*
G37*
%LPD*%
%LPC*%
G36*
X1884674Y1262999D02*
X1884674Y1262999D01*
X1862999Y1284674D01*
X1862999Y1315326D01*
X1884674Y1337001D01*
X1915326Y1337001D01*
X1937001Y1315326D01*
X1937001Y1284674D01*
X1915326Y1262999D01*
X1884674Y1262999D01*
G37*
%LPD*%
%LPC*%
G36*
X1255999Y755999D02*
X1255999Y755999D01*
X1255999Y819549D01*
X1259367Y819016D01*
X1265355Y817070D01*
X1270965Y814212D01*
X1276058Y810511D01*
X1280511Y806058D01*
X1284212Y800965D01*
X1287070Y795355D01*
X1289016Y789367D01*
X1290001Y783148D01*
X1290001Y755999D01*
X1255999Y755999D01*
G37*
%LPD*%
%LPC*%
G36*
X2505999Y1905999D02*
X2505999Y1905999D01*
X2505999Y1940000D01*
X2533148Y1940001D01*
X2539367Y1939016D01*
X2545355Y1937070D01*
X2550965Y1934212D01*
X2556058Y1930511D01*
X2560511Y1926058D01*
X2564212Y1920965D01*
X2567070Y1915355D01*
X2569016Y1909367D01*
X2569549Y1905999D01*
X2505999Y1905999D01*
G37*
%LPD*%
%LPC*%
G36*
X2430451Y1905999D02*
X2430451Y1905999D01*
X2430984Y1909367D01*
X2432930Y1915355D01*
X2435788Y1920965D01*
X2439489Y1926058D01*
X2443941Y1930511D01*
X2449035Y1934212D01*
X2454645Y1937070D01*
X2460633Y1939016D01*
X2466852Y1940001D01*
X2494001Y1940001D01*
X2494001Y1905999D01*
X2430451Y1905999D01*
G37*
%LPD*%
%LPC*%
G36*
X1255999Y744001D02*
X1255999Y744001D01*
X1290000Y744001D01*
X1290001Y716852D01*
X1289016Y710633D01*
X1287070Y704645D01*
X1284212Y699035D01*
X1280511Y693941D01*
X1276058Y689489D01*
X1270965Y685788D01*
X1265355Y682930D01*
X1259367Y680984D01*
X1255999Y680451D01*
X1255999Y744001D01*
G37*
%LPD*%
%LPC*%
G36*
X2505999Y1859999D02*
X2505999Y1859999D01*
X2505999Y1894001D01*
X2569549Y1894001D01*
X2569016Y1890633D01*
X2567070Y1884645D01*
X2564212Y1879035D01*
X2560511Y1873941D01*
X2556058Y1869489D01*
X2550965Y1865788D01*
X2545355Y1862930D01*
X2539367Y1860984D01*
X2533148Y1859999D01*
X2505999Y1859999D01*
G37*
%LPD*%
%LPC*%
G36*
X1209999Y755999D02*
X1209999Y755999D01*
X1209999Y783148D01*
X1210984Y789367D01*
X1212930Y795355D01*
X1215788Y800965D01*
X1219489Y806058D01*
X1223941Y810511D01*
X1229035Y814212D01*
X1234645Y817070D01*
X1240633Y819016D01*
X1244001Y819549D01*
X1244001Y755999D01*
X1209999Y755999D01*
G37*
%LPD*%
%LPC*%
G36*
X2466852Y1859999D02*
X2466852Y1859999D01*
X2460633Y1860984D01*
X2454645Y1862930D01*
X2449035Y1865788D01*
X2443941Y1869489D01*
X2439489Y1873941D01*
X2435788Y1879035D01*
X2432930Y1884645D01*
X2430984Y1890633D01*
X2430451Y1894001D01*
X2494001Y1894001D01*
X2494001Y1859999D01*
X2466852Y1859999D01*
G37*
%LPD*%
%LPC*%
G36*
X1240633Y680984D02*
X1240633Y680984D01*
X1234645Y682930D01*
X1229035Y685788D01*
X1223941Y689489D01*
X1219489Y693941D01*
X1215788Y699035D01*
X1212930Y704645D01*
X1210984Y710633D01*
X1209999Y716852D01*
X1209999Y744001D01*
X1244001Y744001D01*
X1244001Y680451D01*
X1240633Y680984D01*
G37*
%LPD*%
%LPC*%
G36*
X1255999Y1006999D02*
X1255999Y1006999D01*
X1255999Y1044001D01*
X1293001Y1044001D01*
X1293001Y1032188D01*
X1267811Y1006999D01*
X1255999Y1006999D01*
G37*
%LPD*%
%LPC*%
G36*
X1232188Y1006999D02*
X1232188Y1006999D01*
X1206999Y1032188D01*
X1206999Y1044001D01*
X1244001Y1044001D01*
X1244001Y1006999D01*
X1232188Y1006999D01*
G37*
%LPD*%
%LPC*%
G36*
X1405999Y2005999D02*
X1405999Y2005999D01*
X1405999Y2041574D01*
X1409835Y2040966D01*
X1416122Y2038924D01*
X1422013Y2035922D01*
X1427361Y2032036D01*
X1432036Y2027361D01*
X1435922Y2022013D01*
X1438924Y2016122D01*
X1440966Y2009835D01*
X1441574Y2005999D01*
X1405999Y2005999D01*
G37*
%LPD*%
%LPC*%
G36*
X1405999Y1994001D02*
X1405999Y1994001D01*
X1441574Y1994001D01*
X1440966Y1990165D01*
X1438924Y1983877D01*
X1435922Y1977986D01*
X1432036Y1972639D01*
X1427361Y1967963D01*
X1422013Y1964078D01*
X1416122Y1961076D01*
X1409835Y1959033D01*
X1405999Y1958426D01*
X1405999Y1994001D01*
G37*
%LPD*%
%LPC*%
G36*
X1358426Y2005999D02*
X1358426Y2005999D01*
X1359033Y2009835D01*
X1361076Y2016122D01*
X1364078Y2022013D01*
X1367963Y2027361D01*
X1372639Y2032036D01*
X1377986Y2035922D01*
X1383877Y2038924D01*
X1390165Y2040966D01*
X1394001Y2041574D01*
X1394001Y2005999D01*
X1358426Y2005999D01*
G37*
%LPD*%
%LPC*%
G36*
X1390165Y1959033D02*
X1390165Y1959033D01*
X1383877Y1961076D01*
X1377986Y1964078D01*
X1372639Y1967963D01*
X1367963Y1972639D01*
X1364078Y1977986D01*
X1361076Y1983877D01*
X1359033Y1990165D01*
X1358426Y1994001D01*
X1394001Y1994001D01*
X1394001Y1958426D01*
X1390165Y1959033D01*
G37*
%LPD*%
%LPC*%
G36*
X1905999Y1405999D02*
X1905999Y1405999D01*
X1905999Y1440562D01*
X1909601Y1439991D01*
X1915739Y1437997D01*
X1921489Y1435067D01*
X1926710Y1431274D01*
X1931274Y1426710D01*
X1935067Y1421489D01*
X1937997Y1415739D01*
X1939991Y1409601D01*
X1940562Y1405999D01*
X1905999Y1405999D01*
G37*
%LPD*%
%LPC*%
G36*
X1905999Y1394001D02*
X1905999Y1394001D01*
X1940562Y1394001D01*
X1939991Y1390399D01*
X1937997Y1384261D01*
X1935067Y1378511D01*
X1931274Y1373290D01*
X1926710Y1368726D01*
X1921489Y1364933D01*
X1915739Y1362003D01*
X1909601Y1360009D01*
X1905999Y1359438D01*
X1905999Y1394001D01*
G37*
%LPD*%
%LPC*%
G36*
X1859438Y1405999D02*
X1859438Y1405999D01*
X1860009Y1409601D01*
X1862003Y1415739D01*
X1864933Y1421489D01*
X1868726Y1426710D01*
X1873290Y1431274D01*
X1878511Y1435067D01*
X1884261Y1437997D01*
X1890399Y1439991D01*
X1894001Y1440562D01*
X1894001Y1405999D01*
X1859438Y1405999D01*
G37*
%LPD*%
%LPC*%
G36*
X1890399Y1360009D02*
X1890399Y1360009D01*
X1884261Y1362003D01*
X1878511Y1364933D01*
X1873290Y1368726D01*
X1868726Y1373290D01*
X1864933Y1378511D01*
X1862003Y1384261D01*
X1860009Y1390399D01*
X1859438Y1394001D01*
X1894001Y1394001D01*
X1894001Y1359438D01*
X1890399Y1360009D01*
G37*
%LPD*%
%LPC*%
G36*
X1655999Y905999D02*
X1655999Y905999D01*
X1655999Y936001D01*
X1664912Y936001D01*
X1686001Y914912D01*
X1686001Y905999D01*
X1655999Y905999D01*
G37*
%LPD*%
%LPC*%
G36*
X1613999Y905999D02*
X1613999Y905999D01*
X1613999Y914912D01*
X1635088Y936001D01*
X1644001Y936001D01*
X1644001Y905999D01*
X1613999Y905999D01*
G37*
%LPD*%
%LPC*%
G36*
X1655999Y863999D02*
X1655999Y863999D01*
X1655999Y894001D01*
X1686001Y894001D01*
X1686001Y885088D01*
X1664912Y863999D01*
X1655999Y863999D01*
G37*
%LPD*%
%LPC*%
G36*
X1635088Y863999D02*
X1635088Y863999D01*
X1613999Y885088D01*
X1613999Y894001D01*
X1644001Y894001D01*
X1644001Y863999D01*
X1635088Y863999D01*
G37*
%LPD*%
%LPC*%
G36*
X1899999Y1399999D02*
X1899999Y1399999D01*
X1899999Y1400001D01*
X1900001Y1400001D01*
X1900001Y1399999D01*
X1899999Y1399999D01*
G37*
%LPD*%
%LPC*%
G36*
X2499999Y1899999D02*
X2499999Y1899999D01*
X2499999Y1900001D01*
X2500001Y1900001D01*
X2500001Y1899999D01*
X2499999Y1899999D01*
G37*
%LPD*%
%LPC*%
G36*
X1399999Y1999999D02*
X1399999Y1999999D01*
X1399999Y2000001D01*
X1400001Y2000001D01*
X1400001Y1999999D01*
X1399999Y1999999D01*
G37*
%LPD*%
%LPC*%
G36*
X1649999Y899999D02*
X1649999Y899999D01*
X1649999Y900001D01*
X1650001Y900001D01*
X1650001Y899999D01*
X1649999Y899999D01*
G37*
%LPD*%
%LPC*%
G36*
X1249999Y749999D02*
X1249999Y749999D01*
X1249999Y750001D01*
X1250001Y750001D01*
X1250001Y749999D01*
X1249999Y749999D01*
G37*
%LPD*%
D10*
X850000Y800000D03*
D11*
X850000Y700000D03*
D12*
X1900000Y1300000D03*
D11*
X1900000Y1400000D03*
D13*
X1900000Y2350000D03*
X2000000Y2350000D03*
D14*
X2300000Y2250000D03*
X2300000Y2350000D03*
D13*
X2150000Y1350000D03*
X2250000Y1350000D03*
D15*
X1250000Y1150000D03*
X1325000Y1100000D03*
X1250000Y1050000D03*
D16*
X300000Y803630D03*
D17*
X299000Y1091850D03*
X151906Y928740D03*
D18*
X2470000Y1500000D02*
X2530000Y1500000D01*
X2530000Y1600000D02*
X2470000Y1600000D01*
X2470000Y1700000D02*
X2530000Y1700000D01*
X2530000Y1800000D02*
X2470000Y1800000D01*
X2470000Y1900000D02*
X2530000Y1900000D01*
X230000Y2000000D02*
X170000Y2000000D01*
X170000Y1900000D02*
X230000Y1900000D01*
X230000Y1800000D02*
X170000Y1800000D01*
X170000Y1700000D02*
X230000Y1700000D01*
X230000Y1600000D02*
X170000Y1600000D01*
X170000Y1500000D02*
X230000Y1500000D01*
X2820000Y1950000D02*
X2880000Y1950000D01*
X2880000Y2050000D02*
X2820000Y2050000D01*
X2820000Y2150000D02*
X2880000Y2150000D01*
X2880000Y2250000D02*
X2820000Y2250000D01*
X2820000Y2350000D02*
X2880000Y2350000D01*
X2880000Y2450000D02*
X2820000Y2450000D01*
X2820000Y2550000D02*
X2880000Y2550000D01*
X2880000Y2650000D02*
X2820000Y2650000D01*
X230000Y2800000D02*
X170000Y2800000D01*
X170000Y2700000D02*
X230000Y2700000D01*
X230000Y2600000D02*
X170000Y2600000D01*
X170000Y2500000D02*
X230000Y2500000D01*
X230000Y2400000D02*
X170000Y2400000D01*
X170000Y2300000D02*
X230000Y2300000D01*
D19*
X750000Y2150000D03*
X850000Y2150000D03*
D20*
X1950000Y900000D03*
X1650000Y900000D03*
X600000Y2150000D03*
X300000Y2150000D03*
D21*
X711000Y1072000D03*
X711000Y1328000D03*
X889000Y1072000D03*
X889000Y1328000D03*
D22*
X1400000Y1400000D03*
X1400000Y1500000D03*
X1400000Y1600000D03*
X1400000Y1700000D03*
X1400000Y1800000D03*
X1400000Y1900000D03*
X1400000Y2000000D03*
X1400000Y2100000D03*
X1400000Y2200000D03*
X1400000Y2300000D03*
X1400000Y2400000D03*
X1400000Y2500000D03*
X1400000Y2600000D03*
X1400000Y2700000D03*
X1100000Y2700000D03*
X1100000Y2600000D03*
X1100000Y2500000D03*
X1100000Y2400000D03*
X1100000Y2300000D03*
X1100000Y2200000D03*
X1100000Y2100000D03*
X1100000Y2000000D03*
X1100000Y1900000D03*
X1100000Y1800000D03*
X1100000Y1700000D03*
X1100000Y1600000D03*
X1100000Y1500000D03*
X1100000Y1400000D03*
D23*
X1650000Y2300000D03*
X1650000Y2100000D03*
D18*
X1350000Y780000D02*
X1350000Y720000D01*
X1250000Y720000D02*
X1250000Y780000D01*
X1150000Y780000D02*
X1150000Y720000D01*
D24*
X840000Y702000D02*
X396000Y702000D01*
X840000Y702000D02*
X846000Y702000D01*
X396000Y702000D02*
X300000Y798000D01*
X846000Y702000D02*
X850000Y700000D01*
X300000Y798000D02*
X300000Y803630D01*
X1236000Y1098000D02*
X1320000Y1098000D01*
X1236000Y1098000D02*
X840000Y702000D01*
X1320000Y1098000D02*
X1325000Y1100000D01*
X850000Y700000D02*
X840000Y702000D01*
X1404000Y900000D02*
X1650000Y900000D01*
X1404000Y900000D02*
X1254000Y1050000D01*
X1250000Y1050000D01*
X1250000Y1046000D02*
X1250000Y750000D01*
X1250000Y1046000D02*
X1254000Y1050000D01*
X156000Y948000D02*
X156000Y930000D01*
X156000Y948000D02*
X294000Y1086000D01*
X156000Y930000D02*
X151906Y928740D01*
X294000Y1086000D02*
X299000Y1091850D01*
X846000Y936000D02*
X846000Y804000D01*
X846000Y936000D02*
X714000Y1068000D01*
X846000Y804000D02*
X850000Y800000D01*
X714000Y1068000D02*
X711000Y1072000D01*
X1056000Y1146000D02*
X1248000Y1146000D01*
X1056000Y1146000D02*
X846000Y936000D01*
X1248000Y1146000D02*
X1250000Y1150000D01*
X696000Y1086000D02*
X300000Y1086000D01*
X696000Y1086000D02*
X708000Y1074000D01*
X300000Y1086000D02*
X299000Y1091850D01*
X708000Y1074000D02*
X711000Y1072000D01*
X996000Y2004000D02*
X1098000Y2004000D01*
X996000Y2004000D02*
X850000Y2150000D01*
X1098000Y2004000D02*
X1100000Y2000000D01*
X1200000Y2100000D02*
X1400000Y2100000D01*
X1200000Y2100000D02*
X1100000Y2000000D01*
X2004000Y2352000D02*
X2298000Y2352000D01*
X2004000Y2352000D02*
X2000000Y2350000D01*
X2298000Y2352000D02*
X2300000Y2350000D01*
X208008Y872638D02*
X151906Y928740D01*
X208008Y872638D02*
X208008Y765525D01*
X323533Y650000D01*
X1350000Y650000D01*
X1350000Y750000D01*
X1404000Y2196000D02*
X1554000Y2196000D01*
X1650000Y2100000D01*
X1404000Y2196000D02*
X1400000Y2200000D01*
X1692000Y2346000D02*
X1896000Y2346000D01*
X1692000Y2346000D02*
X1650000Y2304000D01*
X1896000Y2346000D02*
X1900000Y2350000D01*
X1650000Y2304000D02*
X1404000Y2304000D01*
X1400000Y2300000D01*
X1650000Y2300000D02*
X1650000Y2304000D01*
X1950000Y1050000D02*
X1950000Y900000D01*
X1850000Y1050000D02*
X2150000Y1350000D01*
X1398000Y1398000D02*
X1218000Y1398000D01*
X894000Y1074000D01*
X1398000Y1398000D02*
X1400000Y1400000D01*
X894000Y1074000D02*
X889000Y1072000D01*
X1752000Y1050000D02*
X1850000Y1050000D01*
X1950000Y1050000D01*
X1752000Y1050000D02*
X1404000Y1398000D01*
X1400000Y1400000D01*
X1104000Y2100000D02*
X1104000Y2196000D01*
X1104000Y2100000D02*
X1100000Y2100000D01*
X1104000Y2196000D02*
X1100000Y2200000D01*
X300000Y2202000D02*
X300000Y2150000D01*
X300000Y2202000D02*
X204000Y2298000D01*
X200000Y2300000D01*
X396000Y2298000D02*
X1098000Y2298000D01*
X396000Y2298000D02*
X300000Y2202000D01*
X1098000Y2298000D02*
X1100000Y2300000D01*
X750000Y2154000D02*
X600000Y2154000D01*
X600000Y2150000D01*
X750000Y2150000D02*
X750000Y2154000D01*
X2346000Y1350000D02*
X2496000Y1500000D01*
X2346000Y1350000D02*
X2250000Y1350000D01*
X2496000Y1500000D02*
X2500000Y1500000D01*
X2500000Y1600000D02*
X2850000Y1950000D01*
X2400000Y1500000D02*
X1400000Y1500000D01*
X2400000Y1500000D02*
X2500000Y1600000D01*
X2502000Y1704000D02*
X2850000Y2052000D01*
X2502000Y1704000D02*
X2500000Y1700000D01*
X2850000Y2050000D02*
X2850000Y2052000D01*
X2400000Y1602000D02*
X1404000Y1602000D01*
X2400000Y1602000D02*
X2496000Y1698000D01*
X1404000Y1602000D02*
X1400000Y1600000D01*
X2496000Y1698000D02*
X2500000Y1700000D01*
X2334000Y2148000D02*
X2850000Y2148000D01*
X2334000Y2148000D02*
X1890000Y1704000D01*
X1404000Y1704000D01*
X2850000Y2148000D02*
X2850000Y2150000D01*
X1404000Y1704000D02*
X1400000Y1700000D01*
X2352000Y2250000D02*
X2850000Y2250000D01*
X2352000Y2250000D02*
X1860000Y1758000D01*
X1442000Y1758000D01*
X1400000Y1800000D01*
X2346000Y2346000D02*
X2850000Y2346000D01*
X2346000Y2346000D02*
X1902000Y1902000D01*
X1404000Y1902000D01*
X2850000Y2346000D02*
X2850000Y2350000D01*
X1404000Y1902000D02*
X1400000Y1900000D01*
X1452000Y2448000D02*
X2850000Y2448000D01*
X1452000Y2448000D02*
X1404000Y2400000D01*
X2850000Y2448000D02*
X2850000Y2450000D01*
X1404000Y2400000D02*
X1400000Y2400000D01*
X1452000Y2550000D02*
X2850000Y2550000D01*
X1452000Y2550000D02*
X1404000Y2502000D01*
X1400000Y2500000D01*
X1446000Y2646000D02*
X2850000Y2646000D01*
X1446000Y2646000D02*
X1400000Y2600000D01*
X2850000Y2646000D02*
X2850000Y2650000D01*
X1302000Y2796000D02*
X204000Y2796000D01*
X1302000Y2796000D02*
X1398000Y2700000D01*
X204000Y2796000D02*
X200000Y2800000D01*
X1398000Y2700000D02*
X1400000Y2700000D01*
X1100000Y2700000D02*
X200000Y2700000D01*
X204000Y2598000D02*
X1098000Y2598000D01*
X204000Y2598000D02*
X200000Y2600000D01*
X1098000Y2598000D02*
X1100000Y2600000D01*
X1098000Y2502000D02*
X204000Y2502000D01*
X200000Y2500000D01*
X1098000Y2502000D02*
X1100000Y2500000D01*
X1100000Y2400000D02*
X200000Y2400000D01*
X204000Y1896000D02*
X1002000Y1896000D01*
X1098000Y1800000D01*
X204000Y1896000D02*
X200000Y1900000D01*
X1098000Y1800000D02*
X1100000Y1800000D01*
X1002000Y1800000D02*
X200000Y1800000D01*
X1002000Y1800000D02*
X1098000Y1704000D01*
X1100000Y1700000D01*
X1002000Y1698000D02*
X204000Y1698000D01*
X1002000Y1698000D02*
X1100000Y1600000D01*
X204000Y1698000D02*
X200000Y1700000D01*
X204000Y1596000D02*
X1002000Y1596000D01*
X1098000Y1500000D01*
X204000Y1596000D02*
X200000Y1600000D01*
X1098000Y1500000D02*
X1100000Y1500000D01*
X1002000Y1500000D02*
X200000Y1500000D01*
X1002000Y1500000D02*
X1098000Y1404000D01*
X1100000Y1400000D01*
M02*
