M48
;GenerationSoftware,Autodesk,EAGLE,9.6.2*%
;CreationDate,2021-09-27T13:03:11Z*%
FMAT,2
ICI,OFF
INCH,TZ,00.0000
T5C0.0276
T4C0.0320
T3C0.0400
T2C0.1180
T1C0.1260
%
G90
M72
T1
X3000Y8036
T2
X1519Y9287
X2990Y10919
T3
X25000Y19000
X28500Y20500
X28500Y21500
X28500Y22500
X28500Y23500
X28500Y24500
X28500Y25500
X28500Y26500
X2000Y28000
X2000Y27000
X2000Y26000
X2000Y25000
X2000Y24000
X25000Y15000
X25000Y16000
X25000Y17000
X25000Y18000
X2000Y23000
X2000Y20000
X2000Y19000
X2000Y18000
X2000Y17000
X2000Y16000
X2000Y15000
X28500Y19500
X7110Y10720
X7110Y13280
X8890Y10720
X8890Y13280
X11500Y7500
X13500Y7500
X12500Y7500
T4
X21500Y13500
X22500Y13500
X8500Y8000
X13250Y11000
X12500Y10500
X12500Y11500
X7500Y21500
X8500Y21500
X19500Y9000
X16500Y9000
X6000Y21500
X3000Y21500
X8500Y7000
X19000Y13000
X19000Y14000
X19000Y23500
X14000Y14000
X14000Y15000
X14000Y16000
X14000Y17000
X14000Y18000
X14000Y19000
X14000Y20000
X14000Y21000
X14000Y22000
X14000Y23000
X14000Y24000
X14000Y25000
X20000Y23500
X14000Y27000
X11000Y27000
X11000Y26000
X11000Y25000
X11000Y24000
X11000Y23000
X11000Y22000
X11000Y21000
X11000Y20000
X14000Y26000
X11000Y18000
X11000Y17000
X11000Y16000
X11000Y15000
X11000Y14000
X23000Y22500
X23000Y23500
X11000Y19000
T5
X16500Y21000
X16500Y23000
M30