M48
;GenerationSoftware,Autodesk,EAGLE,9.6.2*%
;CreationDate,2021-09-27T13:03:11Z*%
FMAT,2
ICI,OFF
INCH,TZ,00.0000
T6C0.0276
T5C0.0320
T4C0.0400
T3C0.1180
T2C0.1260
T1C0.1500
%
G90
M72
T1
X0Y28000
X28500Y28000
X29000Y7000
X500Y7000
T2
X3000Y8036
T3
X1519Y9287
X2990Y10919
T4
X2000Y28000
X2000Y27000
X2000Y26000
X2000Y25000
X2000Y24000
X2000Y23000
X7110Y10720
X25000Y17000
X7110Y13280
X8890Y10720
X8890Y13280
X11500Y7500
X13500Y7500
X25000Y15000
X25000Y16000
X12500Y7500
X25000Y18000
X25000Y19000
X2000Y20000
X2000Y19000
X2000Y18000
X2000Y17000
X2000Y16000
X2000Y15000
X28500Y19500
X28500Y20500
X28500Y21500
X28500Y22500
X28500Y23500
X28500Y24500
X28500Y25500
X28500Y26500
T5
X8500Y8000
X8500Y7000
X19000Y13000
X19000Y14000
X19000Y23500
X20000Y23500
X23000Y22500
X21500Y13500
X22500Y13500
X12500Y11500
X13250Y11000
X12500Y10500
X23000Y23500
X8500Y21500
X19500Y9000
X16500Y9000
X14000Y14000
X14000Y15000
X14000Y16000
X14000Y17000
X14000Y18000
X14000Y19000
X14000Y20000
X14000Y21000
X14000Y22000
X14000Y23000
X6000Y21500
X14000Y25000
X14000Y26000
X14000Y27000
X11000Y27000
X11000Y26000
X11000Y25000
X11000Y24000
X11000Y23000
X11000Y22000
X11000Y21000
X14000Y24000
X11000Y19000
X11000Y18000
X11000Y17000
X11000Y16000
X11000Y15000
X11000Y14000
X3000Y21500
X7500Y21500
X11000Y20000
T6
X16500Y21000
X16500Y23000
M30